<svg xmlns="http://www.w3.org/2000/svg" xmlns:xlink="http://www.w3.org/1999/xlink" width="500" zoomAndPan="magnify" viewBox="0 0 375 374.999991" height="500" preserveAspectRatio="xMidYMid meet" version="1.0"><defs><filter x="0%" y="0%" width="100%" height="100%" id="92e8118eb7"><feColorMatrix values="0 0 0 0 1 0 0 0 0 1 0 0 0 0 1 0 0 0 1 0" color-interpolation-filters="sRGB"/></filter><g/><clipPath id="ec4987d0ff"><path d="M 38 170.40625 L 92.589844 170.40625 L 92.589844 214.113281 L 38 214.113281 Z M 38 170.40625 " clip-rule="nonzero"/></clipPath><clipPath id="2840b62776"><path d="M 58.203125 170.40625 L 86.910156 170.40625 C 88.648438 170.40625 90.28125 171.242188 91.296875 172.652344 C 92.3125 174.0625 92.589844 175.875 92.039062 177.523438 L 82.214844 207 C 80.796875 211.246094 76.820312 214.113281 72.34375 214.113281 L 43.636719 214.113281 C 41.898438 214.113281 40.265625 213.277344 39.25 211.867188 C 38.234375 210.460938 37.957031 208.648438 38.507812 207 L 48.332031 177.523438 C 49.75 173.273438 53.726562 170.40625 58.203125 170.40625 Z M 58.203125 170.40625 " clip-rule="nonzero"/></clipPath><mask id="cbc52bb96a"><g filter="url(#92e8118eb7)"><rect x="-37.5" width="450" fill="#000000" y="-37.499999" height="449.999989" fill-opacity="0.8"/></g></mask><clipPath id="10ebbefc3a"><path d="M 2.472656 0.886719 L 57 0.886719 L 57 44.59375 L 2.472656 44.59375 Z M 2.472656 0.886719 " clip-rule="nonzero"/></clipPath><clipPath id="ff5bdd8c90"><path d="M 22.722656 0.886719 L 51.429688 0.886719 C 53.164062 0.886719 54.796875 1.722656 55.8125 3.132812 C 56.828125 4.539062 57.105469 6.351562 56.554688 8 L 46.730469 37.476562 C 45.316406 41.726562 41.339844 44.59375 36.859375 44.59375 L 8.152344 44.59375 C 6.414062 44.59375 4.785156 43.757812 3.769531 42.347656 C 2.753906 40.9375 2.476562 39.125 3.023438 37.476562 L 12.851562 8 C 14.265625 3.753906 18.242188 0.886719 22.722656 0.886719 Z M 22.722656 0.886719 " clip-rule="nonzero"/></clipPath><clipPath id="54e70b30eb"><rect x="0" width="60" y="0" height="45"/></clipPath><clipPath id="8fdcdf344b"><path d="M 115.003906 209.460938 L 337.5 209.460938 L 337.5 218.765625 L 115.003906 218.765625 Z M 115.003906 209.460938 " clip-rule="nonzero"/></clipPath><clipPath id="971e8ffe5f"><path d="M 115.003906 209.460938 L 117.015625 218.765625 L 337.5 209.964844 L 337.375 209.460938 Z M 115.003906 209.460938 " clip-rule="nonzero"/></clipPath><clipPath id="a092337b4a"><path d="M 46 204 L 91 204 L 91 217.136719 L 46 217.136719 Z M 46 204 " clip-rule="nonzero"/></clipPath><clipPath id="17e2c14799"><path d="M 37.902344 172 L 44 172 L 44 201 L 37.902344 201 Z M 37.902344 172 " clip-rule="nonzero"/></clipPath><clipPath id="13f8ad0af9"><path d="M 74 188 L 94.152344 188 L 94.152344 215 L 74 215 Z M 74 188 " clip-rule="nonzero"/></clipPath><clipPath id="b014ce8081"><path d="M 39 160.886719 L 67 160.886719 L 67 211 L 39 211 Z M 39 160.886719 " clip-rule="nonzero"/></clipPath></defs><g clip-path="url(#ec4987d0ff)"><g clip-path="url(#2840b62776)"><path fill="#0558ee" d="M 36.136719 170.40625 L 94.410156 170.40625 L 94.410156 214.113281 L 36.136719 214.113281 Z M 36.136719 170.40625 " fill-opacity="1" fill-rule="nonzero"/></g></g><g mask="url(#cbc52bb96a)"><g transform="matrix(1, 0, 0, 1, 29, 160)"><g clip-path="url(#54e70b30eb)"><g clip-path="url(#10ebbefc3a)"><g clip-path="url(#ff5bdd8c90)"><path fill="#21e8e6" d="M 0.652344 0.886719 L 58.929688 0.886719 L 58.929688 44.59375 L 0.652344 44.59375 Z M 0.652344 0.886719 " fill-opacity="1" fill-rule="nonzero"/></g></g></g></g></g><g fill="#050419" fill-opacity="1"><g transform="translate(110.080924, 200.624987)"><g><path d="M 13.859375 0.351562 C 19.867188 0.351562 26.769531 -3.351562 26.769531 -10.457031 L 26.769531 -34.976562 L 21.667969 -34.976562 L 21.667969 -10.507812 C 21.667969 -6.65625 17.515625 -4.703125 13.859375 -4.703125 C 10.15625 -4.703125 6.003906 -6.605469 6.003906 -10.457031 L 6.003906 -34.976562 L 0.902344 -34.976562 L 0.902344 -10.507812 C 0.902344 -3.351562 7.707031 0.351562 13.859375 0.351562 Z M 13.859375 0.351562 "/></g></g></g><g fill="#050419" fill-opacity="1"><g transform="translate(140.304589, 200.624987)"><g><path d="M 5.855469 0 L 5.855469 -24.46875 L 22.769531 0 L 26.769531 0 L 26.769531 -35.027344 L 21.765625 -35.027344 L 21.765625 -10.359375 L 4.703125 -35.027344 L 0.800781 -35.078125 L 0.800781 0 Z M 5.855469 0 "/></g></g></g><g fill="#050419" fill-opacity="1"><g transform="translate(170.47822, 200.624987)"><g><path d="M 17.265625 -34.976562 L -0.800781 -34.976562 L -0.800781 -29.972656 L 5.703125 -29.972656 L 5.703125 -5.054688 L -0.800781 -5.054688 L -0.800781 0 L 17.265625 0 L 17.265625 -5.054688 L 10.757812 -5.054688 L 10.757812 -29.972656 L 17.265625 -29.972656 Z M 17.265625 -34.976562 "/></g></g></g><g fill="#050419" fill-opacity="1"><g transform="translate(189.94348, 200.624987)"><g><path d="M 14.660156 0.148438 L 14.660156 -30.324219 L 25.21875 -30.324219 L 25.21875 -35.027344 L -1 -35.027344 L -1 -30.324219 L 9.609375 -30.324219 L 9.609375 0.148438 Z M 14.660156 0.148438 "/></g></g></g><g fill="#050419" fill-opacity="1"><g transform="translate(217.414998, 200.624987)"><g><path d="M 7.707031 -15.363281 L 20.464844 0 L 27.023438 0 L 15.960938 -13.160156 C 21.96875 -14.210938 25.019531 -18.914062 25.019531 -23.867188 C 25.019531 -29.421875 21.21875 -35.027344 13.609375 -35.027344 L 0.851562 -35.027344 L 0.851562 0 L 5.855469 0 L 5.855469 -29.925781 L 13.609375 -29.925781 C 17.863281 -29.925781 19.964844 -26.871094 19.964844 -23.867188 C 19.964844 -20.816406 17.863281 -17.765625 13.609375 -17.765625 L 7.707031 -17.765625 Z M 7.707031 -15.363281 "/></g></g></g><g fill="#050419" fill-opacity="1"><g transform="translate(244.736392, 200.624987)"><g><path d="M 13.8125 -27.421875 L 18.113281 -15.0625 L 9.40625 -15.0625 Z M 24.269531 0 L 29.671875 0 L 15.613281 -35.476562 L 11.910156 -35.476562 L -2.152344 0 L 3.300781 0 C 4.402344 -2.902344 6.15625 -7.105469 7.507812 -10.308594 L 20.066406 -10.308594 Z M 24.269531 0 "/></g></g></g><g fill="#050419" fill-opacity="1"><g transform="translate(274.910019, 200.624987)"><g><path d="M 0.148438 -17.414062 C 0.148438 -12.558594 2.152344 -8.15625 5.152344 -4.953125 C 8.207031 -1.75 12.511719 0.25 17.265625 0.25 C 25.421875 0.25 31.824219 -5.152344 33.828125 -13.109375 L 28.875 -13.109375 C 27.070312 -7.804688 22.566406 -4.753906 17.265625 -4.753906 C 13.910156 -4.753906 10.859375 -6.203125 8.65625 -8.507812 C 6.457031 -10.808594 5.054688 -13.910156 5.054688 -17.414062 C 5.054688 -21.015625 6.457031 -24.121094 8.65625 -26.421875 C 10.859375 -28.722656 13.910156 -30.175781 17.265625 -30.175781 C 22.417969 -30.175781 26.722656 -27.523438 28.574219 -22.269531 L 33.578125 -22.269531 C 31.574219 -30.175781 25.269531 -35.179688 17.265625 -35.179688 C 12.511719 -35.179688 8.207031 -33.125 5.152344 -29.972656 C 2.152344 -26.769531 0.148438 -22.367188 0.148438 -17.414062 Z M 0.148438 -17.414062 "/></g></g></g><g fill="#050419" fill-opacity="1"><g transform="translate(311.188418, 200.624987)"><g><path d="M 0.851562 -34.976562 L 0.851562 0 L 5.855469 0 L 5.855469 -34.976562 Z M 6.804688 -16.214844 L 20.167969 0 L 26.769531 0 L 12.007812 -17.613281 L 25.371094 -34.976562 L 19.015625 -34.976562 L 6.804688 -18.765625 Z M 6.804688 -16.214844 "/></g></g></g><g clip-path="url(#8fdcdf344b)"><g clip-path="url(#971e8ffe5f)"><path fill="#101010" d="M 115.003906 209.460938 L 337.5 209.460938 L 337.5 218.765625 L 115.003906 218.765625 Z M 115.003906 209.460938 " fill-opacity="1" fill-rule="nonzero"/></g></g><g clip-path="url(#a092337b4a)"><path fill="#ffffff" d="M 88.257812 205.4375 C 88.261719 205.433594 88.269531 205.425781 88.273438 205.417969 C 88.269531 205.425781 88.261719 205.433594 88.257812 205.4375 Z M 88.492188 206.507812 C 88.125 206.230469 88.054688 205.703125 88.335938 205.339844 C 88.320312 205.355469 88.308594 205.375 88.296875 205.390625 C 88.304688 205.375 88.320312 205.359375 88.335938 205.339844 C 88.382812 205.273438 88.40625 205.246094 88.414062 205.234375 C 88.402344 205.246094 88.371094 205.292969 88.335938 205.339844 C 88.613281 204.972656 89.136719 204.902344 89.5 205.179688 C 89.863281 205.460938 89.933594 205.984375 89.65625 206.351562 C 89.378906 206.714844 88.855469 206.789062 88.492188 206.507812 Z M 46.835938 208.515625 C 46.476562 208.90625 46.492188 209.515625 46.878906 209.878906 C 47.160156 210.140625 47.554688 210.203125 47.890625 210.070312 C 53.128906 214.632812 59.78125 217.136719 66.726562 217.136719 C 71.210938 217.136719 75.515625 216.121094 79.511719 214.125 C 83.003906 212.382812 86.160156 209.890625 88.695312 206.890625 C 89.113281 207.011719 89.582031 206.875 89.859375 206.503906 C 90.222656 206.027344 90.132812 205.339844 89.65625 204.976562 C 89.179688 204.613281 88.496094 204.703125 88.132812 205.183594 C 87.867188 205.53125 87.84375 205.988281 88.035156 206.351562 C 82.703125 212.675781 74.996094 216.28125 66.726562 216.28125 C 59.992188 216.28125 53.542969 213.855469 48.460938 209.4375 C 48.554688 209.101562 48.464844 208.730469 48.195312 208.476562 C 47.808594 208.109375 47.199219 208.128906 46.835938 208.515625 " fill-opacity="1" fill-rule="nonzero"/></g><g clip-path="url(#17e2c14799)"><path fill="#ffffff" d="M 41.535156 199.355469 C 41.53125 199.351562 41.527344 199.34375 41.523438 199.332031 C 41.527344 199.34375 41.53125 199.351562 41.535156 199.355469 Z M 41.449219 199.164062 C 41.425781 199.109375 41.414062 199.085938 41.449219 199.164062 Z M 40.378906 198.816406 C 40.800781 198.628906 41.292969 198.816406 41.480469 199.234375 C 41.667969 199.65625 41.480469 200.152344 41.0625 200.339844 C 40.644531 200.527344 40.152344 200.339844 39.960938 199.917969 C 39.773438 199.5 39.960938 199.003906 40.378906 198.816406 Z M 43.542969 173.59375 C 43.835938 173.148438 43.710938 172.550781 43.269531 172.261719 C 42.824219 171.96875 42.230469 172.09375 41.941406 172.539062 C 41.726562 172.863281 41.738281 173.269531 41.929688 173.578125 C 39.316406 178.015625 37.941406 183.0625 37.941406 188.242188 C 37.941406 191.902344 38.613281 195.453125 39.941406 198.820312 C 39.640625 199.132812 39.542969 199.605469 39.730469 200.023438 C 39.976562 200.574219 40.621094 200.820312 41.167969 200.574219 C 41.714844 200.328125 41.957031 199.679688 41.714844 199.132812 C 41.53125 198.726562 41.136719 198.488281 40.722656 198.488281 C 39.441406 195.226562 38.792969 191.785156 38.792969 188.242188 C 38.792969 183.222656 40.125 178.328125 42.65625 174.027344 C 42.996094 174.054688 43.34375 173.902344 43.542969 173.59375 " fill-opacity="1" fill-rule="nonzero"/></g><path fill="#ffffff" d="M 78.601562 165.613281 C 78.613281 165.617188 78.613281 165.617188 78.601562 165.613281 Z M 78.597656 165.609375 C 78.59375 165.605469 78.582031 165.601562 78.570312 165.597656 C 78.582031 165.601562 78.589844 165.605469 78.597656 165.609375 Z M 79.234375 164.0625 C 79.644531 164.269531 79.8125 164.769531 79.609375 165.183594 C 79.402344 165.59375 78.902344 165.761719 78.492188 165.554688 C 78.082031 165.351562 77.914062 164.847656 78.121094 164.4375 C 78.324219 164.023438 78.824219 163.855469 79.234375 164.0625 Z M 88.210938 171.390625 C 87.976562 171.082031 87.589844 170.953125 87.234375 171.035156 C 85.191406 168.589844 82.699219 166.496094 79.945312 164.914062 C 79.988281 164.480469 79.761719 164.039062 79.347656 163.832031 C 78.8125 163.566406 78.160156 163.785156 77.890625 164.324219 C 77.625 164.859375 77.84375 165.515625 78.378906 165.785156 C 78.765625 165.980469 79.214844 165.917969 79.535156 165.664062 C 82.195312 167.191406 84.597656 169.210938 86.574219 171.570312 C 86.429688 171.882812 86.460938 172.261719 86.679688 172.554688 C 87 172.980469 87.601562 173.0625 88.023438 172.742188 C 88.449219 172.421875 88.53125 171.816406 88.210938 171.390625 " fill-opacity="1" fill-rule="nonzero"/><g clip-path="url(#13f8ad0af9)"><path fill="#ffffff" d="M 92.1875 189.414062 C 92.1875 189.425781 92.1875 189.433594 92.1875 189.441406 C 92.1875 189.433594 92.1875 189.425781 92.1875 189.414062 Z M 92.191406 189.183594 Z M 93.039062 188.5 C 93.496094 188.507812 93.863281 188.890625 93.855469 189.351562 C 93.84375 189.808594 93.464844 190.175781 93.003906 190.167969 C 92.546875 190.160156 92.179688 189.777344 92.191406 189.316406 C 92.191406 189.351562 92.1875 189.386719 92.1875 189.410156 C 92.1875 189.390625 92.1875 189.359375 92.191406 189.316406 C 92.191406 189.246094 92.191406 189.210938 92.191406 189.195312 C 92.191406 189.214844 92.191406 189.265625 92.191406 189.316406 C 92.199219 188.855469 92.582031 188.488281 93.039062 188.5 Z M 94.109375 189.355469 C 94.121094 188.753906 93.644531 188.253906 93.042969 188.242188 C 92.445312 188.230469 91.949219 188.710938 91.933594 189.3125 C 91.925781 189.746094 92.175781 190.125 92.539062 190.308594 C 91.765625 200.171875 85.539062 208.667969 76.367188 212.363281 C 76.117188 212.128906 75.75 212.039062 75.402344 212.160156 C 74.902344 212.332031 74.636719 212.882812 74.808594 213.386719 C 74.984375 213.886719 75.527344 214.15625 76.03125 213.980469 C 76.394531 213.855469 76.636719 213.527344 76.671875 213.160156 C 81.261719 211.3125 85.238281 208.230469 88.210938 204.210938 C 91.21875 200.148438 92.996094 195.378906 93.386719 190.359375 C 93.800781 190.210938 94.097656 189.820312 94.109375 189.355469 C 94.109375 189.355469 94.109375 189.355469 94.109375 189.359375 C 94.109375 189.355469 94.109375 189.355469 94.109375 189.355469 C 94.109375 189.339844 94.109375 189.324219 94.109375 189.308594 C 94.109375 189.324219 94.109375 189.339844 94.109375 189.355469 " fill-opacity="1" fill-rule="nonzero"/></g><g clip-path="url(#b014ce8081)"><path fill="#ffffff" d="M 51.117188 208.453125 C 51.113281 208.449219 51.113281 208.449219 51.117188 208.453125 Z M 50.058594 208.703125 C 50.328125 208.335938 50.851562 208.257812 51.21875 208.53125 C 51.179688 208.5 51.136719 208.46875 51.121094 208.457031 C 51.132812 208.464844 51.164062 208.488281 51.21875 208.53125 C 51.285156 208.578125 51.316406 208.601562 51.324219 208.605469 C 51.3125 208.597656 51.265625 208.5625 51.21875 208.53125 C 51.589844 208.804688 51.667969 209.328125 51.394531 209.695312 C 51.121094 210.066406 50.601562 210.144531 50.230469 209.871094 C 49.863281 209.597656 49.785156 209.074219 50.058594 208.703125 Z M 64.339844 161.503906 C 57.867188 162.082031 51.859375 164.992188 47.34375 169.765625 C 42.597656 174.777344 39.980469 181.339844 39.980469 188.242188 C 39.980469 192.488281 40.945312 196.554688 42.847656 200.328125 C 44.5 203.605469 46.851562 206.554688 49.679688 208.910156 C 49.5625 209.332031 49.707031 209.800781 50.078125 210.078125 C 50.5625 210.433594 51.242188 210.332031 51.597656 209.851562 C 51.957031 209.367188 51.855469 208.679688 51.371094 208.324219 C 51.023438 208.0625 50.566406 208.046875 50.207031 208.242188 C 44.234375 203.277344 40.832031 196.046875 40.832031 188.242188 C 40.832031 174.746094 51.113281 163.546875 64.398438 162.359375 C 64.570312 162.65625 64.898438 162.851562 65.269531 162.835938 C 65.796875 162.8125 66.207031 162.363281 66.183594 161.832031 C 66.160156 161.300781 65.710938 160.886719 65.183594 160.914062 C 64.796875 160.929688 64.480469 161.171875 64.339844 161.503906 " fill-opacity="1" fill-rule="nonzero"/></g><path fill="#ffffff" d="M 88.867188 195.980469 C 88.867188 195.988281 88.863281 195.996094 88.863281 196.003906 C 88.863281 195.996094 88.867188 195.988281 88.867188 195.980469 Z M 88.859375 196.007812 C 88.855469 196.015625 88.855469 196.027344 88.851562 196.03125 C 88.855469 196.027344 88.855469 196.019531 88.859375 196.007812 Z M 88.84375 196.050781 C 88.84375 196.054688 88.84375 196.054688 88.84375 196.050781 Z M 88.910156 195.851562 C 88.910156 195.851562 88.910156 195.851562 88.910156 195.847656 C 88.910156 195.851562 88.910156 195.851562 88.910156 195.851562 Z M 88.917969 195.824219 C 88.921875 195.8125 88.925781 195.804688 88.925781 195.804688 C 88.925781 195.804688 88.921875 195.8125 88.917969 195.824219 Z M 89.933594 195.390625 C 90.371094 195.53125 90.609375 196.003906 90.46875 196.441406 C 90.328125 196.878906 89.859375 197.121094 89.421875 196.976562 C 88.984375 196.835938 88.746094 196.367188 88.886719 195.929688 C 88.890625 195.90625 88.898438 195.890625 88.902344 195.875 C 88.898438 195.890625 88.890625 195.910156 88.886719 195.929688 C 89.027344 195.488281 89.496094 195.25 89.933594 195.390625 Z M 90.734375 196.453125 C 90.726562 196.472656 90.71875 196.496094 90.710938 196.519531 C 90.894531 195.945312 90.582031 195.332031 90.011719 195.144531 C 89.441406 194.960938 88.828125 195.277344 88.644531 195.847656 C 88.511719 196.261719 88.636719 196.699219 88.933594 196.976562 C 85.359375 206.117188 76.566406 212.183594 66.726562 212.183594 C 58.636719 212.183594 51.03125 207.984375 46.652344 201.164062 C 46.835938 200.871094 46.855469 200.492188 46.675781 200.175781 C 46.410156 199.714844 45.824219 199.550781 45.367188 199.816406 C 44.90625 200.078125 44.746094 200.667969 45.007812 201.128906 C 45.199219 201.46875 45.566406 201.644531 45.929688 201.609375 C 48.042969 204.914062 50.925781 207.6875 54.308594 209.671875 C 58.066406 211.875 62.359375 213.039062 66.726562 213.039062 C 76.921875 213.039062 86.035156 206.746094 89.734375 197.273438 C 90.171875 197.25 90.570312 196.960938 90.710938 196.519531 C 90.691406 196.578125 90.675781 196.636719 90.664062 196.667969 C 90.671875 196.644531 90.6875 196.597656 90.710938 196.519531 C 90.71875 196.492188 90.726562 196.472656 90.734375 196.453125 " fill-opacity="1" fill-rule="nonzero"/><path fill="#ffffff" d="M 42.457031 188.585938 C 41.996094 188.582031 41.625 188.207031 41.628906 187.746094 C 41.632812 187.285156 42.007812 186.914062 42.464844 186.914062 C 42.921875 186.917969 43.292969 187.292969 43.292969 187.753906 C 43.292969 187.640625 43.292969 187.523438 43.292969 187.753906 C 43.292969 187.824219 43.292969 187.859375 43.292969 187.878906 C 43.292969 187.855469 43.292969 187.804688 43.292969 187.753906 C 43.289062 188.214844 42.914062 188.585938 42.457031 188.585938 Z M 66.726562 163.875 C 66.710938 163.34375 66.273438 162.921875 65.742188 162.9375 C 65.355469 162.945312 65.03125 163.183594 64.886719 163.515625 C 58.914062 163.960938 53.339844 166.550781 49.105469 170.878906 C 44.902344 175.175781 42.429688 180.769531 42.070312 186.734375 C 41.664062 186.890625 41.375 187.285156 41.375 187.746094 C 41.371094 188.347656 41.855469 188.835938 42.457031 188.839844 C 43.054688 188.84375 43.542969 188.355469 43.546875 187.753906 C 43.550781 187.316406 43.292969 186.9375 42.917969 186.761719 C 43.644531 174.84375 53.054688 165.257812 64.929688 164.371094 C 65.097656 164.671875 65.421875 164.871094 65.789062 164.859375 C 66.320312 164.847656 66.738281 164.40625 66.726562 163.875 " fill-opacity="1" fill-rule="nonzero"/><path fill="#ffffff" d="M 49.785156 175.128906 C 49.789062 175.125 49.789062 175.125 49.785156 175.128906 Z M 49.777344 175.136719 C 49.769531 175.152344 49.75 175.179688 49.714844 175.222656 C 49.742188 175.1875 49.765625 175.15625 49.777344 175.136719 Z M 49.703125 175.242188 C 49.683594 175.269531 49.667969 175.292969 49.65625 175.308594 C 49.667969 175.289062 49.683594 175.265625 49.703125 175.242188 Z M 49.652344 175.3125 C 49.644531 175.320312 49.640625 175.324219 49.640625 175.328125 C 49.640625 175.324219 49.644531 175.320312 49.652344 175.3125 Z M 49.632812 175.335938 C 49.628906 175.339844 49.628906 175.339844 49.632812 175.335938 Z M 49.53125 174.066406 C 49.898438 174.339844 49.980469 174.859375 49.710938 175.234375 C 49.4375 175.605469 48.917969 175.683594 48.546875 175.414062 C 48.175781 175.140625 48.097656 174.617188 48.367188 174.246094 C 48.640625 173.875 49.160156 173.792969 49.53125 174.066406 Z M 82.191406 171.632812 C 77.976562 167.667969 72.519531 165.496094 66.726562 165.496094 C 63.125 165.496094 59.679688 166.324219 56.484375 167.953125 C 53.753906 169.347656 51.296875 171.320312 49.324219 173.6875 C 48.902344 173.574219 48.433594 173.71875 48.160156 174.09375 C 47.808594 174.578125 47.914062 175.265625 48.394531 175.621094 C 48.878906 175.976562 49.5625 175.867188 49.914062 175.382812 C 50.171875 175.03125 50.1875 174.578125 49.992188 174.21875 C 54.15625 169.203125 60.199219 166.351562 66.726562 166.351562 C 72.296875 166.351562 77.542969 168.4375 81.597656 172.242188 C 81.492188 172.570312 81.5625 172.941406 81.816406 173.207031 C 82.183594 173.589844 82.789062 173.605469 83.171875 173.238281 C 83.554688 172.871094 83.570312 172.261719 83.203125 171.875 C 82.933594 171.59375 82.535156 171.511719 82.191406 171.632812 " fill-opacity="1" fill-rule="nonzero"/><path fill="#ffffff" d="M 66.453125 207.675781 C 66.457031 207.675781 66.460938 207.675781 66.46875 207.675781 C 66.460938 207.675781 66.457031 207.675781 66.453125 207.675781 Z M 66.476562 207.675781 C 66.492188 207.675781 66.511719 207.675781 66.539062 207.675781 C 66.515625 207.675781 66.492188 207.675781 66.476562 207.675781 Z M 66.6875 207.671875 C 66.691406 207.671875 66.695312 207.671875 66.699219 207.671875 C 66.695312 207.671875 66.691406 207.671875 66.6875 207.671875 Z M 66.710938 207.671875 C 66.714844 207.671875 66.714844 207.671875 66.710938 207.671875 Z M 65.765625 208.523438 C 65.757812 208.0625 66.125 207.683594 66.582031 207.675781 C 66.605469 207.675781 66.621094 207.675781 66.636719 207.675781 C 66.617188 207.675781 66.601562 207.675781 66.582031 207.675781 C 67.042969 207.667969 67.421875 208.035156 67.429688 208.496094 C 67.4375 208.957031 67.070312 209.335938 66.613281 209.34375 C 66.15625 209.351562 65.773438 208.984375 65.765625 208.523438 Z M 66.617188 209.601562 C 67.21875 209.589844 67.695312 209.089844 67.683594 208.492188 C 67.675781 207.890625 67.179688 207.40625 66.578125 207.417969 C 66.148438 207.425781 65.78125 207.6875 65.613281 208.054688 C 55.234375 207.472656 46.957031 198.792969 46.957031 188.242188 C 46.957031 180.949219 50.851562 174.371094 57.183594 170.867188 C 57.457031 171.070312 57.828125 171.117188 58.160156 170.960938 C 58.636719 170.734375 58.84375 170.160156 58.617188 169.679688 C 58.390625 169.199219 57.816406 168.992188 57.339844 169.21875 C 56.984375 169.386719 56.78125 169.742188 56.789062 170.109375 C 53.75 171.796875 51.171875 174.226562 49.300781 177.183594 C 47.210938 180.492188 46.105469 184.316406 46.105469 188.242188 C 46.105469 199.257812 54.75 208.3125 65.589844 208.910156 C 65.75 209.320312 66.152344 209.609375 66.617188 209.601562 " fill-opacity="1" fill-rule="nonzero"/><path fill="#ffffff" d="M 50.882812 195.285156 C 50.886719 195.289062 50.886719 195.289062 50.886719 195.292969 C 50.886719 195.289062 50.886719 195.289062 50.882812 195.285156 Z M 50.953125 195.425781 C 50.957031 195.433594 50.960938 195.441406 50.964844 195.449219 C 50.960938 195.441406 50.957031 195.433594 50.953125 195.425781 Z M 50.988281 195.492188 C 50.992188 195.507812 50.996094 195.511719 50.996094 195.515625 C 50.996094 195.511719 50.992188 195.503906 50.988281 195.492188 Z M 49.828125 195.019531 C 50.238281 194.816406 50.738281 194.988281 50.941406 195.402344 C 51.144531 195.8125 50.972656 196.316406 50.5625 196.519531 C 50.148438 196.722656 49.648438 196.550781 49.449219 196.136719 C 49.246094 195.722656 49.414062 195.222656 49.828125 195.019531 Z M 48.148438 188.242188 C 48.148438 190.585938 48.574219 192.855469 49.414062 195.011719 C 49.105469 195.332031 49.011719 195.828125 49.21875 196.25 C 49.191406 196.195312 49.164062 196.136719 49.148438 196.109375 C 49.160156 196.132812 49.179688 196.171875 49.21875 196.25 C 49.257812 196.328125 49.277344 196.367188 49.289062 196.390625 C 49.273438 196.363281 49.246094 196.308594 49.21875 196.25 C 49.484375 196.789062 50.136719 197.011719 50.671875 196.746094 C 51.210938 196.484375 51.433594 195.828125 51.167969 195.289062 C 50.980469 194.902344 50.597656 194.679688 50.199219 194.679688 C 49.402344 192.628906 48.996094 190.46875 48.996094 188.242188 C 48.996094 178.429688 56.949219 170.449219 66.726562 170.449219 C 67.992188 170.449219 69.25 170.585938 70.480469 170.851562 C 70.554688 171.183594 70.800781 171.460938 71.144531 171.566406 C 71.652344 171.714844 72.1875 171.421875 72.335938 170.910156 C 72.484375 170.402344 72.191406 169.867188 71.683594 169.714844 C 71.308594 169.605469 70.917969 169.738281 70.683594 170.019531 C 69.386719 169.738281 68.058594 169.59375 66.726562 169.59375 C 56.480469 169.59375 48.148438 177.960938 48.148438 188.242188 " fill-opacity="1" fill-rule="nonzero"/><path fill="#ffffff" d="M 77.566406 199.039062 C 77.558594 199.050781 77.550781 199.058594 77.542969 199.0625 C 77.550781 199.058594 77.558594 199.050781 77.566406 199.039062 Z M 77.652344 198.945312 C 77.660156 198.9375 77.667969 198.929688 77.671875 198.921875 C 77.664062 198.929688 77.660156 198.9375 77.652344 198.945312 Z M 77.691406 198.902344 C 77.714844 198.875 77.710938 198.882812 77.691406 198.902344 Z M 78.792969 198.933594 C 79.128906 199.246094 79.152344 199.777344 78.839844 200.113281 C 78.53125 200.453125 78.003906 200.472656 77.664062 200.164062 C 77.328125 199.851562 77.308594 199.320312 77.617188 198.980469 C 77.613281 198.984375 77.613281 198.988281 77.609375 198.992188 C 77.613281 198.988281 77.613281 198.988281 77.617188 198.980469 C 77.625 198.976562 77.628906 198.96875 77.636719 198.964844 C 77.628906 198.96875 77.625 198.976562 77.617188 198.980469 C 77.929688 198.644531 78.457031 198.621094 78.792969 198.933594 Z M 79.027344 200.289062 C 79.433594 199.847656 79.40625 199.15625 78.964844 198.746094 C 78.527344 198.339844 77.835938 198.367188 77.429688 198.808594 C 77.140625 199.121094 77.074219 199.5625 77.214844 199.9375 C 74.328125 202.558594 70.644531 203.988281 66.726562 203.988281 C 58.074219 203.988281 51.039062 196.925781 51.039062 188.242188 C 51.039062 180.195312 57.078125 173.492188 64.945312 172.597656 C 65.121094 172.886719 65.4375 173.074219 65.796875 173.0625 C 66.328125 173.046875 66.742188 172.601562 66.726562 172.070312 C 66.707031 171.539062 66.265625 171.121094 65.734375 171.136719 C 65.339844 171.152344 65.011719 171.402344 64.875 171.746094 C 56.566406 172.675781 50.1875 179.75 50.1875 188.242188 C 50.1875 197.394531 57.605469 204.839844 66.726562 204.839844 C 70.867188 204.839844 74.761719 203.324219 77.808594 200.550781 C 78.21875 200.726562 78.710938 200.636719 79.027344 200.289062 " fill-opacity="1" fill-rule="nonzero"/><path fill="#ffffff" d="M 79.929688 189.171875 C 79.929688 189.171875 79.929688 189.179688 79.929688 189.183594 C 79.929688 189.175781 79.929688 189.171875 79.929688 189.171875 Z M 79.929688 189.199219 C 79.925781 189.222656 79.925781 189.25 79.925781 189.277344 C 79.925781 189.242188 79.925781 189.21875 79.929688 189.199219 Z M 79.917969 189.410156 C 79.917969 189.410156 79.917969 189.414062 79.917969 189.414062 C 79.917969 189.414062 79.917969 189.410156 79.917969 189.410156 Z M 79.917969 189.429688 C 79.917969 189.433594 79.917969 189.433594 79.917969 189.429688 Z M 80.785156 188.5 C 81.246094 188.515625 81.605469 188.90625 81.585938 189.363281 C 81.566406 189.824219 81.183594 190.183594 80.722656 190.167969 C 80.265625 190.148438 79.90625 189.761719 79.921875 189.300781 C 79.941406 188.839844 80.328125 188.480469 80.785156 188.5 Z M 81.839844 189.375 C 81.863281 188.773438 81.394531 188.265625 80.796875 188.242188 C 80.199219 188.21875 79.691406 188.691406 79.667969 189.289062 C 79.652344 189.710938 79.878906 190.085938 80.21875 190.28125 C 79.597656 194.421875 77.089844 198.085938 73.4375 200.164062 C 73.171875 199.96875 72.808594 199.917969 72.484375 200.0625 C 72 200.28125 71.785156 200.851562 72 201.335938 C 72.21875 201.820312 72.785156 202.039062 73.269531 201.820312 C 73.632812 201.65625 73.84375 201.296875 73.835938 200.917969 C 77.730469 198.710938 80.410156 194.800781 81.0625 190.378906 C 81.496094 190.246094 81.824219 189.851562 81.839844 189.375 " fill-opacity="1" fill-rule="nonzero"/><path fill="#ffffff" d="M 62.1875 200.734375 Z M 61.820312 202.367188 C 61.382812 202.230469 61.136719 201.761719 61.269531 201.320312 C 61.40625 200.882812 61.871094 200.636719 62.3125 200.769531 C 62.265625 200.757812 62.21875 200.742188 62.195312 200.734375 C 62.214844 200.742188 62.25 200.753906 62.3125 200.769531 C 62.378906 200.792969 62.414062 200.804688 62.429688 200.808594 C 62.410156 200.800781 62.363281 200.789062 62.3125 200.773438 C 62.75 200.90625 62.996094 201.375 62.859375 201.816406 C 62.722656 202.253906 62.257812 202.503906 61.820312 202.367188 Z M 53.265625 190.496094 C 53.542969 190.308594 53.714844 189.984375 53.6875 189.628906 C 53.652344 189.097656 53.191406 188.699219 52.664062 188.738281 C 52.132812 188.773438 51.738281 189.234375 51.773438 189.765625 C 51.804688 190.164062 52.070312 190.488281 52.421875 190.609375 C 53.222656 195.476562 56.464844 199.636719 60.980469 201.601562 C 60.992188 202.054688 61.289062 202.46875 61.742188 202.609375 C 61.683594 202.59375 61.625 202.574219 61.59375 202.566406 C 61.617188 202.574219 61.664062 202.585938 61.742188 202.609375 C 61.832031 202.636719 61.878906 202.652344 61.898438 202.660156 C 61.871094 202.652344 61.808594 202.632812 61.742188 202.609375 C 62.316406 202.789062 62.925781 202.464844 63.101562 201.890625 C 63.28125 201.316406 62.960938 200.703125 62.386719 200.527344 C 61.984375 200.402344 61.566406 200.523438 61.289062 200.804688 C 57.0625 198.957031 54.023438 195.054688 53.265625 190.496094 " fill-opacity="1" fill-rule="nonzero"/></svg>