<svg xmlns="http://www.w3.org/2000/svg" xmlns:xlink="http://www.w3.org/1999/xlink" width="500" zoomAndPan="magnify" viewBox="0 0 375 374.999991" height="500" preserveAspectRatio="xMidYMid meet" version="1.0"><defs><filter x="0%" y="0%" width="100%" height="100%" id="e9954ad308"><feColorMatrix values="0 0 0 0 1 0 0 0 0 1 0 0 0 0 1 0 0 0 1 0" color-interpolation-filters="sRGB"/></filter><clipPath id="5459aab5db"><path d="M 86.148438 113.296875 L 314.675781 113.296875 L 314.675781 287.410156 L 86.148438 287.410156 Z M 86.148438 113.296875 " clip-rule="nonzero"/></clipPath><clipPath id="36a2df5683"><path d="M 149.875 113.296875 L 308.988281 113.296875 C 310.726562 113.296875 312.359375 114.132812 313.375 115.542969 C 314.390625 116.949219 314.667969 118.761719 314.117188 120.410156 L 260.824219 280.296875 C 259.40625 284.546875 255.429688 287.410156 250.953125 287.410156 L 91.835938 287.410156 C 90.097656 287.410156 88.46875 286.574219 87.453125 285.167969 C 86.433594 283.757812 86.160156 281.945312 86.707031 280.296875 L 140.003906 120.410156 C 141.417969 116.164062 145.394531 113.296875 149.875 113.296875 Z M 149.875 113.296875 " clip-rule="nonzero"/></clipPath><mask id="486d246d85"><g filter="url(#e9954ad308)"><rect x="-37.5" width="450" fill="#000000" y="-37.499999" height="449.999989" fill-opacity="0.8"/></g></mask><clipPath id="e25a93d468"><path d="M 2.324219 0.363281 L 230.851562 0.363281 L 230.851562 174.480469 L 2.324219 174.480469 Z M 2.324219 0.363281 " clip-rule="nonzero"/></clipPath><clipPath id="a2c5ef802f"><path d="M 66.046875 0.363281 L 225.164062 0.363281 C 226.902344 0.363281 228.53125 1.199219 229.546875 2.609375 C 230.566406 4.019531 230.839844 5.832031 230.292969 7.480469 L 176.996094 167.363281 C 175.582031 171.613281 171.605469 174.480469 167.125 174.480469 L 8.011719 174.480469 C 6.273438 174.480469 4.640625 173.644531 3.625 172.234375 C 2.609375 170.824219 2.332031 169.011719 2.882812 167.363281 L 56.175781 7.480469 C 57.59375 3.230469 61.570312 0.363281 66.046875 0.363281 Z M 66.046875 0.363281 " clip-rule="nonzero"/></clipPath><clipPath id="0858e57149"><rect x="0" width="233" y="0" height="175"/></clipPath><clipPath id="76bbfd8dfc"><path d="M 126 249 L 302 249 L 302 298.992188 L 126 298.992188 Z M 126 249 " clip-rule="nonzero"/></clipPath><clipPath id="f0f99e0f64"><path d="M 91.375 119 L 115 119 L 115 234 L 91.375 234 Z M 91.375 119 " clip-rule="nonzero"/></clipPath><clipPath id="f46ee63415"><path d="M 239 184 L 317.695312 184 L 317.695312 287 L 239 287 Z M 239 184 " clip-rule="nonzero"/></clipPath><clipPath id="ad30fe0f98"><path d="M 99 75.363281 L 206 75.363281 L 206 272 L 99 272 Z M 99 75.363281 " clip-rule="nonzero"/></clipPath></defs><g clip-path="url(#5459aab5db)"><g clip-path="url(#36a2df5683)"><path fill="#0558ee" d="M 84.335938 113.296875 L 316.488281 113.296875 L 316.488281 287.410156 L 84.335938 287.410156 Z M 84.335938 113.296875 " fill-opacity="1" fill-rule="nonzero"/></g></g><g mask="url(#486d246d85)"><g transform="matrix(1, 0, 0, 1, 58, 75)"><g clip-path="url(#0858e57149)"><g clip-path="url(#e25a93d468)"><g clip-path="url(#a2c5ef802f)"><path fill="#21e8e6" d="M 0.511719 0.363281 L 232.664062 0.363281 L 232.664062 174.480469 L 0.511719 174.480469 Z M 0.511719 0.363281 " fill-opacity="1" fill-rule="nonzero"/></g></g></g></g></g><g clip-path="url(#76bbfd8dfc)"><path fill="#ffffff" d="M 293.980469 252.480469 C 293.996094 252.464844 294.019531 252.433594 294.046875 252.398438 C 294.019531 252.433594 293.996094 252.460938 293.980469 252.480469 Z M 294.914062 256.738281 C 293.449219 255.628906 293.164062 253.542969 294.285156 252.085938 C 294.230469 252.160156 294.175781 252.226562 294.128906 252.292969 C 294.171875 252.234375 294.222656 252.171875 294.285156 252.085938 C 294.480469 251.832031 294.570312 251.714844 294.597656 251.679688 C 294.5625 251.726562 294.425781 251.90625 294.285156 252.085938 C 295.40625 250.632812 297.507812 250.351562 298.976562 251.460938 C 300.441406 252.570312 300.726562 254.65625 299.605469 256.113281 C 298.488281 257.566406 296.386719 257.847656 294.914062 256.738281 Z M 127.324219 264.726562 C 125.863281 266.265625 125.941406 268.6875 127.496094 270.136719 C 128.617188 271.183594 130.207031 271.429688 131.554688 270.90625 C 152.628906 289.039062 179.394531 298.988281 207.34375 298.988281 C 225.394531 298.988281 242.703125 294.964844 258.78125 287.027344 C 272.839844 280.085938 285.535156 270.1875 295.730469 258.261719 C 297.417969 258.742188 299.300781 258.191406 300.421875 256.730469 C 301.886719 254.828125 301.515625 252.101562 299.597656 250.652344 C 297.679688 249.203125 294.929688 249.566406 293.46875 251.472656 C 292.40625 252.851562 292.316406 254.671875 293.082031 256.121094 C 271.621094 281.261719 240.609375 295.59375 207.34375 295.59375 C 180.246094 295.59375 154.292969 285.957031 133.851562 268.386719 C 134.226562 267.054688 133.867188 265.566406 132.78125 264.558594 C 131.226562 263.109375 128.785156 263.183594 127.324219 264.726562 " fill-opacity="1" fill-rule="nonzero"/></g><g clip-path="url(#f0f99e0f64)"><path fill="#ffffff" d="M 105.980469 228.296875 C 105.972656 228.28125 105.960938 228.25 105.941406 228.207031 C 105.960938 228.253906 105.976562 228.285156 105.980469 228.296875 Z M 105.636719 227.539062 C 105.542969 227.332031 105.5 227.238281 105.636719 227.539062 Z M 101.34375 226.15625 C 103.027344 225.40625 105.011719 226.15625 105.769531 227.828125 C 106.523438 229.496094 105.769531 231.464844 104.085938 232.214844 C 102.402344 232.964844 100.417969 232.21875 99.664062 230.546875 C 98.90625 228.875 99.660156 226.910156 101.34375 226.15625 Z M 114.074219 125.882812 C 115.242188 124.117188 114.742188 121.742188 112.960938 120.585938 C 111.175781 119.425781 108.785156 119.921875 107.617188 121.691406 C 106.765625 122.980469 106.804688 124.597656 107.582031 125.824219 C 97.070312 143.457031 91.527344 163.535156 91.527344 184.121094 C 91.527344 198.664062 94.238281 212.789062 99.574219 226.175781 C 98.371094 227.414062 97.972656 229.300781 98.726562 230.964844 C 99.714844 233.144531 102.308594 234.125 104.507812 233.144531 C 106.707031 232.164062 107.691406 229.589844 106.703125 227.410156 C 105.980469 225.808594 104.390625 224.859375 102.726562 224.855469 C 97.570312 211.890625 94.949219 198.207031 94.949219 184.121094 C 94.949219 164.164062 100.316406 144.699219 110.5 127.601562 C 111.871094 127.722656 113.265625 127.109375 114.074219 125.882812 " fill-opacity="1" fill-rule="nonzero"/></g><path fill="#ffffff" d="M 255.132812 94.152344 C 255.167969 94.167969 255.175781 94.175781 255.132812 94.152344 Z M 255.113281 94.144531 C 255.085938 94.128906 255.050781 94.113281 255.003906 94.089844 C 255.046875 94.109375 255.085938 94.128906 255.113281 94.144531 Z M 257.675781 87.992188 C 259.328125 88.808594 260 90.808594 259.175781 92.441406 C 258.351562 94.082031 256.335938 94.75 254.683594 93.929688 C 253.035156 93.113281 252.363281 91.117188 253.1875 89.480469 C 254.011719 87.839844 256.023438 87.175781 257.675781 87.992188 Z M 293.785156 117.132812 C 292.84375 115.898438 291.289062 115.394531 289.859375 115.714844 C 281.636719 105.984375 271.609375 97.671875 260.527344 91.382812 C 260.699219 89.648438 259.800781 87.90625 258.132812 87.082031 C 255.976562 86.015625 253.34375 86.886719 252.269531 89.023438 C 251.191406 91.164062 252.070312 93.773438 254.226562 94.84375 C 255.789062 95.617188 257.597656 95.367188 258.886719 94.363281 C 269.582031 100.4375 279.257812 108.460938 287.203125 117.847656 C 286.628906 119.089844 286.746094 120.59375 287.632812 121.753906 C 288.921875 123.441406 291.34375 123.769531 293.039062 122.496094 C 294.742188 121.21875 295.074219 118.816406 293.785156 117.132812 " fill-opacity="1" fill-rule="nonzero"/><g clip-path="url(#f46ee63415)"><path fill="#ffffff" d="M 309.792969 188.777344 C 309.789062 188.828125 309.789062 188.863281 309.789062 188.886719 C 309.789062 188.863281 309.789062 188.828125 309.792969 188.777344 Z M 309.808594 187.871094 C 309.808594 187.863281 309.808594 187.863281 309.808594 187.871094 Z M 313.214844 185.140625 C 315.058594 185.179688 316.53125 186.695312 316.492188 188.527344 C 316.453125 190.355469 314.921875 191.8125 313.078125 191.777344 C 311.230469 191.738281 309.761719 190.222656 309.800781 188.390625 C 309.796875 188.53125 309.796875 188.667969 309.792969 188.769531 C 309.792969 188.683594 309.796875 188.5625 309.800781 188.390625 C 309.804688 188.121094 309.808594 187.972656 309.808594 187.90625 C 309.804688 187.992188 309.804688 188.1875 309.800781 188.390625 C 309.839844 186.558594 311.371094 185.101562 313.214844 185.140625 Z M 317.515625 188.546875 C 317.566406 186.15625 315.644531 184.167969 313.234375 184.121094 C 310.824219 184.070312 308.820312 185.976562 308.773438 188.371094 C 308.738281 190.097656 309.734375 191.609375 311.195312 192.335938 C 308.09375 231.539062 283.046875 265.324219 246.140625 280.019531 C 245.128906 279.09375 243.648438 278.734375 242.253906 279.210938 C 240.242188 279.898438 239.171875 282.078125 239.871094 284.078125 C 240.566406 286.078125 242.761719 287.136719 244.777344 286.445312 C 246.253906 285.941406 247.214844 284.636719 247.359375 283.191406 C 265.828125 275.835938 281.820312 263.59375 293.789062 247.605469 C 305.882812 231.449219 313.039062 212.488281 314.613281 192.539062 C 316.273438 191.949219 317.480469 190.394531 317.515625 188.546875 C 317.515625 188.550781 317.515625 188.554688 317.515625 188.558594 C 317.515625 188.554688 317.515625 188.550781 317.515625 188.546875 C 317.519531 188.476562 317.519531 188.414062 317.523438 188.355469 C 317.519531 188.417969 317.519531 188.484375 317.515625 188.546875 " fill-opacity="1" fill-rule="nonzero"/></g><g clip-path="url(#ad30fe0f98)"><path fill="#ffffff" d="M 144.539062 264.46875 C 144.527344 264.460938 144.527344 264.460938 144.539062 264.46875 Z M 140.277344 265.46875 C 141.375 264 143.472656 263.6875 144.957031 264.773438 C 144.789062 264.652344 144.621094 264.527344 144.558594 264.480469 C 144.605469 264.519531 144.730469 264.609375 144.957031 264.773438 C 145.222656 264.96875 145.34375 265.058594 145.375 265.082031 C 145.332031 265.050781 145.144531 264.914062 144.957031 264.777344 C 146.441406 265.867188 146.753906 267.945312 145.65625 269.417969 C 144.558594 270.890625 142.460938 271.203125 140.976562 270.113281 C 139.492188 269.023438 139.179688 266.941406 140.277344 265.46875 Z M 197.746094 77.828125 C 171.699219 80.121094 147.53125 91.691406 129.355469 110.660156 C 110.257812 130.597656 99.738281 156.683594 99.738281 184.121094 C 99.738281 201.007812 103.617188 217.171875 111.269531 232.164062 C 117.925781 245.199219 127.378906 256.921875 138.753906 266.292969 C 138.289062 267.96875 138.871094 269.835938 140.367188 270.929688 C 142.304688 272.351562 145.046875 271.945312 146.480469 270.023438 C 147.917969 268.101562 147.507812 265.378906 145.566406 263.957031 C 144.160156 262.921875 142.332031 262.863281 140.882812 263.636719 C 116.855469 243.894531 103.160156 215.148438 103.160156 184.121094 C 103.160156 130.464844 144.519531 85.945312 197.972656 81.214844 C 198.671875 82.40625 199.996094 83.183594 201.484375 83.117188 C 203.613281 83.019531 205.261719 81.230469 205.164062 79.117188 C 205.070312 77.007812 203.261719 75.371094 201.132812 75.46875 C 199.589844 75.535156 198.300781 76.5 197.746094 77.828125 " fill-opacity="1" fill-rule="nonzero"/></g><path fill="#ffffff" d="M 296.4375 214.882812 C 296.425781 214.914062 296.417969 214.945312 296.40625 214.976562 C 296.414062 214.945312 296.425781 214.914062 296.4375 214.882812 Z M 296.398438 214.992188 C 296.386719 215.03125 296.375 215.066406 296.367188 215.09375 C 296.375 215.066406 296.386719 215.035156 296.398438 214.992188 Z M 296.34375 215.171875 C 296.339844 215.179688 296.339844 215.179688 296.34375 215.171875 Z M 296.601562 214.378906 C 296.601562 214.371094 296.605469 214.367188 296.605469 214.359375 C 296.605469 214.367188 296.601562 214.371094 296.601562 214.378906 Z M 296.636719 214.257812 C 296.652344 214.21875 296.660156 214.191406 296.664062 214.179688 C 296.660156 214.191406 296.652344 214.21875 296.636719 214.257812 Z M 300.714844 212.535156 C 302.472656 213.097656 303.441406 214.972656 302.871094 216.710938 C 302.304688 218.457031 300.417969 219.417969 298.660156 218.851562 C 296.90625 218.292969 295.9375 216.417969 296.503906 214.675781 C 296.53125 214.59375 296.550781 214.53125 296.570312 214.46875 C 296.546875 214.535156 296.527344 214.605469 296.503906 214.675781 C 297.070312 212.933594 298.960938 211.976562 300.714844 212.535156 Z M 303.9375 216.757812 C 303.910156 216.84375 303.878906 216.933594 303.851562 217.027344 C 304.589844 214.75 303.324219 212.300781 301.03125 211.566406 C 298.734375 210.832031 296.269531 212.085938 295.527344 214.363281 C 294.992188 216.007812 295.507812 217.738281 296.695312 218.851562 C 282.320312 255.179688 246.933594 279.304688 207.34375 279.304688 C 174.804688 279.304688 144.191406 262.605469 126.585938 235.488281 C 127.3125 234.332031 127.394531 232.828125 126.664062 231.5625 C 125.609375 229.726562 123.25 229.085938 121.398438 230.136719 C 119.546875 231.179688 118.90625 233.519531 119.960938 235.355469 C 120.734375 236.703125 122.207031 237.402344 123.667969 237.269531 C 132.179688 250.402344 143.769531 261.429688 157.378906 269.3125 C 172.496094 278.070312 189.777344 282.699219 207.34375 282.699219 C 248.371094 282.699219 285.039062 257.683594 299.910156 220.019531 C 301.671875 219.929688 303.277344 218.785156 303.851562 217.027344 C 303.773438 217.261719 303.699219 217.496094 303.660156 217.609375 C 303.6875 217.519531 303.75 217.339844 303.851562 217.027344 C 303.882812 216.921875 303.914062 216.835938 303.9375 216.757812 " fill-opacity="1" fill-rule="nonzero"/><path fill="#ffffff" d="M 109.695312 185.480469 C 107.851562 185.472656 106.359375 183.976562 106.367188 182.148438 C 106.375 180.316406 107.882812 178.835938 109.730469 178.84375 C 111.574219 178.851562 113.070312 180.347656 113.058594 182.175781 C 113.0625 181.722656 113.0625 181.261719 113.058594 182.175781 C 113.058594 182.453125 113.058594 182.605469 113.058594 182.671875 C 113.058594 182.585938 113.058594 182.382812 113.058594 182.175781 C 113.050781 184.011719 111.542969 185.492188 109.695312 185.480469 Z M 207.34375 87.242188 C 207.289062 85.128906 205.515625 83.457031 203.386719 83.511719 C 201.832031 83.550781 200.523438 84.496094 199.941406 85.824219 C 175.914062 87.585938 153.488281 97.890625 136.457031 115.089844 C 119.539062 132.175781 109.582031 154.417969 108.140625 178.121094 C 106.511719 178.746094 105.347656 180.308594 105.339844 182.140625 C 105.328125 184.53125 107.28125 186.488281 109.691406 186.5 C 112.105469 186.511719 114.074219 184.574219 114.085938 182.183594 C 114.09375 180.4375 113.058594 178.933594 111.558594 178.238281 C 114.480469 130.855469 152.34375 92.742188 200.117188 89.214844 C 200.796875 90.410156 202.101562 91.203125 203.582031 91.167969 C 205.714844 91.113281 207.394531 89.355469 207.34375 87.242188 " fill-opacity="1" fill-rule="nonzero"/><path fill="#ffffff" d="M 139.183594 131.988281 C 139.195312 131.972656 139.195312 131.972656 139.183594 131.988281 Z M 139.15625 132.027344 C 139.113281 132.085938 139.035156 132.1875 138.90625 132.363281 C 139.007812 132.226562 139.101562 132.09375 139.15625 132.027344 Z M 138.851562 132.4375 C 138.769531 132.550781 138.703125 132.636719 138.660156 132.699219 C 138.714844 132.625 138.78125 132.53125 138.851562 132.4375 Z M 138.640625 132.722656 C 138.621094 132.746094 138.605469 132.769531 138.59375 132.785156 C 138.609375 132.765625 138.625 132.746094 138.640625 132.722656 Z M 138.578125 132.808594 C 138.558594 132.832031 138.5625 132.828125 138.578125 132.808594 Z M 138.15625 127.761719 C 139.644531 128.84375 139.96875 130.921875 138.878906 132.402344 C 137.789062 133.878906 135.691406 134.195312 134.199219 133.117188 C 132.710938 132.035156 132.386719 129.953125 133.480469 128.476562 C 134.570312 127 136.667969 126.679688 138.15625 127.761719 Z M 269.574219 118.09375 C 252.613281 102.332031 230.660156 93.691406 207.34375 93.691406 C 192.851562 93.691406 178.988281 96.980469 166.136719 103.464844 C 155.148438 109.007812 145.269531 116.84375 137.335938 126.261719 C 135.636719 125.800781 133.753906 126.386719 132.652344 127.875 C 131.226562 129.804688 131.648438 132.523438 133.59375 133.9375 C 135.539062 135.351562 138.28125 134.929688 139.707031 133.003906 C 140.738281 131.605469 140.796875 129.796875 140.015625 128.367188 C 156.773438 108.4375 181.078125 97.085938 207.34375 97.085938 C 229.757812 97.085938 250.863281 105.382812 267.179688 120.519531 C 266.753906 121.816406 267.042969 123.296875 268.0625 124.347656 C 269.535156 125.875 271.980469 125.929688 273.519531 124.46875 C 275.058594 123.007812 275.109375 120.582031 273.636719 119.054688 C 272.554688 117.9375 270.957031 117.613281 269.574219 118.09375 " fill-opacity="1" fill-rule="nonzero"/><path fill="#ffffff" d="M 206.25 261.386719 C 206.261719 261.386719 206.277344 261.386719 206.308594 261.386719 C 206.28125 261.386719 206.261719 261.386719 206.25 261.386719 Z M 206.347656 261.386719 C 206.398438 261.382812 206.480469 261.382812 206.585938 261.382812 C 206.492188 261.382812 206.40625 261.382812 206.347656 261.386719 Z M 207.183594 261.371094 C 207.207031 261.371094 207.226562 261.371094 207.242188 261.371094 C 207.222656 261.371094 207.207031 261.371094 207.183594 261.371094 Z M 207.289062 261.371094 C 207.308594 261.367188 207.308594 261.367188 207.289062 261.371094 Z M 203.484375 264.757812 C 203.453125 262.921875 204.925781 261.410156 206.769531 261.375 C 206.769531 261.375 206.765625 261.375 206.761719 261.375 C 206.765625 261.375 206.769531 261.375 206.769531 261.375 C 206.851562 261.375 206.917969 261.375 206.976562 261.375 C 206.914062 261.375 206.84375 261.375 206.769531 261.375 C 208.617188 261.34375 210.144531 262.808594 210.175781 264.636719 C 210.207031 266.46875 208.734375 267.980469 206.890625 268.015625 C 205.042969 268.046875 203.515625 266.585938 203.484375 264.757812 Z M 206.90625 269.03125 C 209.320312 268.992188 211.246094 267.011719 211.203125 264.621094 C 211.160156 262.230469 209.164062 260.316406 206.753906 260.359375 C 205.023438 260.390625 203.542969 261.421875 202.863281 262.886719 C 161.101562 260.570312 127.800781 226.074219 127.800781 184.121094 C 127.800781 155.128906 143.476562 128.980469 168.945312 115.046875 C 170.050781 115.84375 171.550781 116.035156 172.875 115.417969 C 174.800781 114.511719 175.625 112.230469 174.714844 110.316406 C 173.800781 108.40625 171.5 107.589844 169.574219 108.492188 C 168.152344 109.160156 167.335938 110.574219 167.367188 112.039062 C 155.128906 118.738281 144.761719 128.394531 137.238281 140.15625 C 128.824219 153.308594 124.378906 168.511719 124.378906 184.121094 C 124.378906 227.910156 159.164062 263.914062 202.765625 266.28125 C 203.417969 267.917969 205.035156 269.066406 206.90625 269.03125 " fill-opacity="1" fill-rule="nonzero"/><path fill="#ffffff" d="M 143.605469 212.125 C 143.609375 212.128906 143.613281 212.136719 143.617188 212.144531 C 143.613281 212.136719 143.609375 212.132812 143.605469 212.125 Z M 143.882812 212.679688 C 143.898438 212.710938 143.914062 212.746094 143.925781 212.773438 C 143.914062 212.742188 143.898438 212.710938 143.882812 212.679688 Z M 144.015625 212.953125 C 144.039062 213 144.054688 213.027344 144.0625 213.042969 C 144.050781 213.027344 144.035156 212.996094 144.015625 212.953125 Z M 139.351562 211.066406 C 141.007812 210.257812 143.015625 210.9375 143.832031 212.578125 C 144.644531 214.222656 143.960938 216.214844 142.304688 217.023438 C 140.648438 217.832031 138.640625 217.148438 137.824219 215.507812 C 137.011719 213.867188 137.695312 211.871094 139.351562 211.066406 Z M 132.589844 184.121094 C 132.589844 193.4375 134.304688 202.46875 137.6875 211.03125 C 136.445312 212.3125 136.070312 214.273438 136.902344 215.957031 C 136.792969 215.730469 136.679688 215.503906 136.628906 215.398438 C 136.667969 215.484375 136.753906 215.652344 136.902344 215.957031 C 137.054688 216.257812 137.136719 216.429688 137.179688 216.511719 C 137.128906 216.40625 137.015625 216.183594 136.902344 215.957031 C 137.96875 218.101562 140.59375 218.992188 142.757812 217.9375 C 144.921875 216.878906 145.816406 214.273438 144.753906 212.128906 C 143.996094 210.605469 142.449219 209.722656 140.84375 209.710938 C 137.636719 201.566406 136.011719 192.980469 136.011719 184.121094 C 136.011719 145.113281 168.011719 113.378906 207.34375 113.378906 C 212.4375 113.378906 217.503906 113.921875 222.445312 114.980469 C 222.746094 116.296875 223.730469 117.410156 225.125 117.816406 C 227.171875 118.410156 229.316406 117.25 229.914062 115.21875 C 230.511719 113.191406 229.339844 111.0625 227.296875 110.46875 C 225.78125 110.027344 224.21875 110.550781 223.261719 111.675781 C 218.050781 110.550781 212.714844 109.984375 207.34375 109.984375 C 166.125 109.984375 132.589844 143.242188 132.589844 184.121094 " fill-opacity="1" fill-rule="nonzero"/><path fill="#ffffff" d="M 250.953125 227.050781 C 250.925781 227.085938 250.894531 227.117188 250.871094 227.140625 C 250.894531 227.117188 250.921875 227.085938 250.953125 227.050781 Z M 251.300781 226.675781 C 251.332031 226.644531 251.363281 226.613281 251.386719 226.585938 C 251.359375 226.613281 251.332031 226.644531 251.300781 226.675781 Z M 251.46875 226.496094 C 251.558594 226.398438 251.542969 226.417969 251.46875 226.496094 Z M 255.898438 226.632812 C 257.253906 227.871094 257.339844 229.976562 256.085938 231.320312 C 254.835938 232.664062 252.710938 232.75 251.359375 231.511719 C 250.003906 230.269531 249.917969 228.164062 251.167969 226.820312 C 251.15625 226.835938 251.140625 226.847656 251.125 226.867188 C 251.140625 226.847656 251.15625 226.835938 251.167969 226.820312 C 251.195312 226.792969 251.214844 226.769531 251.238281 226.746094 C 251.214844 226.769531 251.195312 226.792969 251.167969 226.816406 C 252.421875 225.472656 254.542969 225.390625 255.898438 226.632812 Z M 256.839844 232.015625 C 258.476562 230.257812 258.367188 227.507812 256.59375 225.882812 C 254.824219 224.261719 252.050781 224.371094 250.414062 226.128906 C 249.25 227.378906 248.976562 229.132812 249.550781 230.621094 C 237.9375 241.03125 223.105469 246.71875 207.34375 246.71875 C 172.539062 246.71875 144.226562 218.636719 144.226562 184.121094 C 144.226562 152.128906 168.527344 125.472656 200.179688 121.925781 C 200.878906 123.070312 202.164062 123.820312 203.609375 123.773438 C 205.738281 123.707031 207.410156 121.9375 207.34375 119.824219 C 207.273438 117.710938 205.488281 116.054688 203.359375 116.125 C 201.773438 116.175781 200.445312 117.167969 199.894531 118.542969 C 166.472656 122.234375 140.804688 150.359375 140.804688 184.121094 C 140.804688 220.511719 170.652344 250.113281 207.34375 250.113281 C 224 250.113281 239.675781 244.085938 251.929688 233.0625 C 253.578125 233.75 255.558594 233.390625 256.839844 232.015625 " fill-opacity="1" fill-rule="nonzero"/><path fill="#ffffff" d="M 260.464844 187.8125 C 260.464844 187.824219 260.464844 187.839844 260.464844 187.859375 C 260.464844 187.835938 260.464844 187.824219 260.464844 187.8125 Z M 260.460938 187.929688 C 260.457031 188.011719 260.453125 188.121094 260.449219 188.238281 C 260.453125 188.101562 260.457031 188 260.460938 187.929688 Z M 260.429688 188.761719 C 260.429688 188.769531 260.429688 188.777344 260.429688 188.785156 C 260.429688 188.777344 260.429688 188.765625 260.429688 188.761719 Z M 260.425781 188.847656 C 260.425781 188.855469 260.425781 188.855469 260.425781 188.847656 Z M 263.917969 185.140625 C 265.761719 185.207031 267.203125 186.753906 267.132812 188.582031 C 267.0625 190.414062 265.507812 191.84375 263.664062 191.773438 C 261.816406 191.703125 260.375 190.15625 260.445312 188.328125 C 260.515625 186.5 262.074219 185.070312 263.917969 185.140625 Z M 268.160156 188.621094 C 268.25 186.234375 266.367188 184.210938 263.957031 184.121094 C 261.546875 184.027344 259.511719 185.898438 259.417969 188.289062 C 259.355469 189.960938 260.257812 191.449219 261.632812 192.226562 C 259.128906 208.691406 249.035156 223.253906 234.355469 231.515625 C 233.273438 230.738281 231.820312 230.539062 230.515625 231.117188 C 228.570312 231.984375 227.695312 234.246094 228.570312 236.175781 C 229.441406 238.105469 231.726562 238.972656 233.667969 238.105469 C 235.132812 237.457031 235.988281 236.015625 235.953125 234.519531 C 251.628906 225.734375 262.398438 210.1875 265.035156 192.609375 C 266.777344 192.09375 268.085938 190.523438 268.160156 188.621094 " fill-opacity="1" fill-rule="nonzero"/><path fill="#ffffff" d="M 189.089844 233.78125 C 189.085938 233.78125 189.082031 233.777344 189.082031 233.777344 C 189.082031 233.777344 189.085938 233.78125 189.089844 233.78125 Z M 187.601562 240.273438 C 185.839844 239.734375 184.847656 237.871094 185.394531 236.121094 C 185.941406 234.375 187.816406 233.390625 189.582031 233.933594 C 189.394531 233.875 189.207031 233.816406 189.121094 233.789062 C 189.1875 233.8125 189.328125 233.855469 189.582031 233.933594 C 189.855469 234.019531 190 234.0625 190.058594 234.082031 C 189.984375 234.054688 189.785156 233.996094 189.582031 233.933594 C 191.34375 234.472656 192.332031 236.335938 191.789062 238.085938 C 191.242188 239.832031 189.363281 240.816406 187.601562 240.273438 Z M 153.1875 193.082031 C 154.296875 192.34375 154.988281 191.050781 154.886719 189.632812 C 154.734375 187.523438 152.886719 185.9375 150.761719 186.089844 C 148.636719 186.242188 147.035156 188.070312 147.1875 190.179688 C 147.300781 191.765625 148.371094 193.054688 149.796875 193.535156 C 153.015625 212.878906 166.0625 229.429688 184.222656 237.230469 C 184.277344 239.03125 185.464844 240.6875 187.296875 241.246094 C 187.054688 241.171875 186.816406 241.097656 186.703125 241.0625 C 186.792969 241.089844 186.972656 241.148438 187.296875 241.246094 C 187.648438 241.355469 187.839844 241.414062 187.917969 241.4375 C 187.816406 241.40625 187.558594 241.324219 187.296875 241.246094 C 189.601562 241.953125 192.054688 240.671875 192.769531 238.386719 C 193.480469 236.101562 192.1875 233.667969 189.882812 232.960938 C 188.273438 232.464844 186.585938 232.949219 185.476562 234.066406 C 168.464844 226.71875 156.238281 211.210938 153.1875 193.082031 " fill-opacity="1" fill-rule="nonzero"/></svg>