<svg xmlns="http://www.w3.org/2000/svg" xmlns:xlink="http://www.w3.org/1999/xlink" width="800" zoomAndPan="magnify" viewBox="0 0 600 149.999998" height="200" preserveAspectRatio="xMidYMid meet" version="1.0"><defs><filter x="0%" y="0%" width="100%" height="100%" id="213452f3d3"><feColorMatrix values="0 0 0 0 1 0 0 0 0 1 0 0 0 0 1 0 0 0 1 0" color-interpolation-filters="sRGB"/></filter><g/><clipPath id="2eb096dbff"><path d="M 189.5625 110.984375 L 566.042969 110.984375 L 566.042969 126.722656 L 189.5625 126.722656 Z M 189.5625 110.984375 " clip-rule="nonzero"/></clipPath><clipPath id="8528da6c0e"><path d="M 189.5625 110.984375 L 192.96875 126.722656 L 566.042969 111.835938 L 565.828125 110.984375 Z M 189.5625 110.984375 " clip-rule="nonzero"/></clipPath><clipPath id="7a0e83971a"><path d="M 35.472656 35.296875 L 157.746094 35.296875 L 157.746094 128.460938 L 35.472656 128.460938 Z M 35.472656 35.296875 " clip-rule="nonzero"/></clipPath><clipPath id="4bd1fca271"><path d="M 70.804688 35.296875 L 153.46875 35.296875 C 154.683594 35.296875 155.828125 35.878906 156.539062 36.867188 C 157.25 37.855469 157.441406 39.121094 157.058594 40.277344 L 129.324219 123.480469 C 128.332031 126.453125 125.550781 128.460938 122.414062 128.460938 L 39.75 128.460938 C 38.535156 128.460938 37.390625 127.875 36.679688 126.886719 C 35.96875 125.902344 35.777344 124.632812 36.160156 123.480469 L 63.894531 40.277344 C 64.886719 37.300781 67.671875 35.296875 70.804688 35.296875 Z M 70.804688 35.296875 " clip-rule="nonzero"/></clipPath><mask id="a8784210e5"><g filter="url(#213452f3d3)"><rect x="-60" width="720" fill="#000000" y="-15" height="179.999997" fill-opacity="0.8"/></g></mask><clipPath id="2abde9fe30"><path d="M 2 1 L 123.929688 1 L 123.929688 94.164062 L 2 94.164062 Z M 2 1 " clip-rule="nonzero"/></clipPath><clipPath id="09e5a93b5b"><path d="M 36.988281 1 L 119.648438 1 C 120.867188 1 122.007812 1.585938 122.71875 2.570312 C 123.429688 3.558594 123.625 4.828125 123.238281 5.980469 L 95.503906 89.183594 C 94.515625 92.15625 91.730469 94.164062 88.59375 94.164062 L 5.933594 94.164062 C 4.714844 94.164062 3.574219 93.578125 2.863281 92.589844 C 2.152344 91.605469 1.957031 90.335938 2.34375 89.183594 L 30.078125 5.980469 C 31.066406 3.007812 33.851562 1 36.988281 1 Z M 36.988281 1 " clip-rule="nonzero"/></clipPath><clipPath id="955ba86186"><rect x="0" width="125" y="0" height="95"/></clipPath><clipPath id="a54b3541f2"><path d="M 56 108 L 150 108 L 150 135.160156 L 56 135.160156 Z M 56 108 " clip-rule="nonzero"/></clipPath><clipPath id="2042ca1c98"><path d="M 38.265625 38 L 51 38 L 51 100 L 38.265625 100 Z M 38.265625 38 " clip-rule="nonzero"/></clipPath><clipPath id="1abfee81d9"><path d="M 116 73 L 158.425781 73 L 158.425781 129 L 116 129 Z M 116 73 " clip-rule="nonzero"/></clipPath></defs><g fill="#050419" fill-opacity="1"><g transform="translate(181.236352, 96.028914)"><g><path d="M 23.453125 0.59375 C 33.613281 0.59375 45.296875 -5.671875 45.296875 -17.695312 L 45.296875 -59.183594 L 36.664062 -59.183594 L 36.664062 -17.78125 C 36.664062 -11.261719 29.632812 -7.960938 23.453125 -7.960938 C 17.1875 -7.960938 10.160156 -11.175781 10.160156 -17.695312 L 10.160156 -59.183594 L 1.523438 -59.183594 L 1.523438 -17.78125 C 1.523438 -5.671875 13.039062 0.59375 23.453125 0.59375 Z M 23.453125 0.59375 "/></g></g></g><g fill="#050419" fill-opacity="1"><g transform="translate(232.37636, 96.028914)"><g><path d="M 9.90625 0 L 9.90625 -41.402344 L 38.523438 0 L 45.296875 0 L 45.296875 -59.269531 L 36.832031 -59.269531 L 36.832031 -17.527344 L 7.960938 -59.269531 L 1.355469 -59.355469 L 1.355469 0 Z M 9.90625 0 "/></g></g></g><g fill="#050419" fill-opacity="1"><g transform="translate(283.431707, 96.028914)"><g><path d="M 29.210938 -59.183594 L -1.355469 -59.183594 L -1.355469 -50.71875 L 9.652344 -50.71875 L 9.652344 -8.550781 L -1.355469 -8.550781 L -1.355469 0 L 29.210938 0 L 29.210938 -8.550781 L 18.203125 -8.550781 L 18.203125 -50.71875 L 29.210938 -50.71875 Z M 29.210938 -59.183594 "/></g></g></g><g fill="#050419" fill-opacity="1"><g transform="translate(316.367937, 96.028914)"><g><path d="M 24.808594 0.253906 L 24.808594 -51.308594 L 42.671875 -51.308594 L 42.671875 -59.269531 L -1.695312 -59.269531 L -1.695312 -51.308594 L 16.257812 -51.308594 L 16.257812 0.253906 Z M 24.808594 0.253906 "/></g></g></g><g fill="#050419" fill-opacity="1"><g transform="translate(362.851169, 96.028914)"><g><path d="M 13.039062 -25.992188 L 34.628906 0 L 45.722656 0 L 27.011719 -22.269531 C 37.171875 -24.046875 42.335938 -32.003906 42.335938 -40.386719 C 42.335938 -49.785156 35.898438 -59.269531 23.03125 -59.269531 L 1.4375 -59.269531 L 1.4375 0 L 9.90625 0 L 9.90625 -50.632812 L 23.03125 -50.632812 C 30.226562 -50.632812 33.785156 -45.46875 33.785156 -40.386719 C 33.785156 -35.222656 30.226562 -30.058594 23.03125 -30.058594 L 13.039062 -30.058594 Z M 13.039062 -25.992188 "/></g></g></g><g fill="#050419" fill-opacity="1"><g transform="translate(409.080385, 96.028914)"><g><path d="M 23.367188 -46.398438 L 30.652344 -25.484375 L 15.917969 -25.484375 Z M 41.066406 0 L 50.210938 0 L 26.417969 -60.03125 L 20.152344 -60.03125 L -3.640625 0 L 5.589844 0 C 7.449219 -4.910156 10.414062 -12.023438 12.699219 -17.441406 L 33.953125 -17.441406 Z M 41.066406 0 "/></g></g></g><g fill="#050419" fill-opacity="1"><g transform="translate(460.135727, 96.028914)"><g><path d="M 0.253906 -29.464844 C 0.253906 -21.253906 3.640625 -13.800781 8.722656 -8.382812 C 13.886719 -2.964844 21.167969 0.421875 29.210938 0.421875 C 43.011719 0.421875 53.851562 -8.722656 57.238281 -22.183594 L 48.855469 -22.183594 C 45.804688 -13.207031 38.1875 -8.042969 29.210938 -8.042969 C 23.539062 -8.042969 18.375 -10.5 14.648438 -14.394531 C 10.921875 -18.289062 8.550781 -23.539062 8.550781 -29.464844 C 8.550781 -35.5625 10.921875 -40.8125 14.648438 -44.707031 C 18.375 -48.601562 23.539062 -51.054688 29.210938 -51.054688 C 37.933594 -51.054688 45.214844 -46.570312 48.347656 -37.679688 L 56.8125 -37.679688 C 53.425781 -51.054688 42.757812 -59.523438 29.210938 -59.523438 C 21.167969 -59.523438 13.886719 -56.050781 8.722656 -50.71875 C 3.640625 -45.296875 0.253906 -37.847656 0.253906 -29.464844 Z M 0.253906 -29.464844 "/></g></g></g><g fill="#050419" fill-opacity="1"><g transform="translate(521.520659, 96.028914)"><g><path d="M 1.4375 -59.183594 L 1.4375 0 L 9.90625 0 L 9.90625 -59.183594 Z M 11.515625 -27.433594 L 34.121094 0 L 45.296875 0 L 20.320312 -29.804688 L 42.929688 -59.183594 L 32.175781 -59.183594 L 11.515625 -31.75 Z M 11.515625 -27.433594 "/></g></g></g><g clip-path="url(#2eb096dbff)"><g clip-path="url(#8528da6c0e)"><path fill="#101010" d="M 189.5625 110.984375 L 566.042969 110.984375 L 566.042969 126.722656 L 189.5625 126.722656 Z M 189.5625 110.984375 " fill-opacity="1" fill-rule="nonzero"/></g></g><g clip-path="url(#7a0e83971a)"><g clip-path="url(#4bd1fca271)"><path fill="#0558ee" d="M 34.5 35.296875 L 158.71875 35.296875 L 158.71875 128.460938 L 34.5 128.460938 Z M 34.5 35.296875 " fill-opacity="1" fill-rule="nonzero"/></g></g><g mask="url(#a8784210e5)"><g transform="matrix(1, 0, 0, 1, 20, 14)"><g clip-path="url(#955ba86186)"><g clip-path="url(#2abde9fe30)"><g clip-path="url(#09e5a93b5b)"><path fill="#21e8e6" d="M 0.683594 1 L 124.898438 1 L 124.898438 94.164062 L 0.683594 94.164062 Z M 0.683594 1 " fill-opacity="1" fill-rule="nonzero"/></g></g></g></g></g><g clip-path="url(#a54b3541f2)"><path fill="#ffffff" d="M 145.835938 110.167969 C 145.84375 110.15625 145.855469 110.144531 145.871094 110.121094 C 145.855469 110.140625 145.84375 110.15625 145.835938 110.167969 Z M 146.332031 112.453125 C 145.554688 111.859375 145.402344 110.738281 145.996094 109.957031 C 145.96875 109.992188 145.9375 110.03125 145.914062 110.066406 C 145.9375 110.035156 145.964844 110 145.996094 109.957031 C 146.101562 109.820312 146.148438 109.753906 146.164062 109.738281 C 146.144531 109.761719 146.070312 109.859375 145.996094 109.957031 C 146.589844 109.171875 147.707031 109.023438 148.488281 109.617188 C 149.265625 110.214844 149.417969 111.335938 148.820312 112.117188 C 148.230469 112.898438 147.113281 113.050781 146.332031 112.453125 Z M 57.351562 116.746094 C 56.578125 117.574219 56.617188 118.875 57.441406 119.652344 C 58.039062 120.214844 58.882812 120.347656 59.597656 120.066406 C 70.789062 129.808594 84.996094 135.15625 99.835938 135.15625 C 109.421875 135.15625 118.609375 132.992188 127.144531 128.726562 C 134.609375 125 141.351562 119.683594 146.765625 113.273438 C 147.660156 113.53125 148.660156 113.234375 149.253906 112.449219 C 150.03125 111.429688 149.835938 109.960938 148.816406 109.183594 C 147.800781 108.40625 146.339844 108.601562 145.5625 109.625 C 145 110.367188 144.953125 111.34375 145.359375 112.121094 C 133.964844 125.628906 117.5 133.332031 99.835938 133.332031 C 85.449219 133.332031 71.671875 128.152344 60.816406 118.714844 C 61.015625 118 60.824219 117.199219 60.25 116.65625 C 59.421875 115.878906 58.125 115.917969 57.351562 116.746094 " fill-opacity="1" fill-rule="nonzero"/></g><g clip-path="url(#2042ca1c98)"><path fill="#ffffff" d="M 46.019531 97.171875 C 46.015625 97.164062 46.007812 97.148438 46 97.125 C 46.007812 97.148438 46.015625 97.164062 46.019531 97.171875 Z M 45.839844 96.765625 C 45.789062 96.652344 45.765625 96.601562 45.839844 96.765625 Z M 43.558594 96.023438 C 44.453125 95.621094 45.503906 96.023438 45.90625 96.921875 C 46.308594 97.816406 45.90625 98.875 45.015625 99.277344 C 44.121094 99.679688 43.066406 99.277344 42.664062 98.378906 C 42.265625 97.484375 42.664062 96.425781 43.558594 96.023438 Z M 50.316406 42.144531 C 50.9375 41.195312 50.671875 39.917969 49.726562 39.296875 C 48.777344 38.675781 47.507812 38.941406 46.886719 39.890625 C 46.4375 40.585938 46.457031 41.453125 46.871094 42.113281 C 41.289062 51.585938 38.34375 62.375 38.34375 73.4375 C 38.34375 81.25 39.785156 88.839844 42.617188 96.03125 C 41.980469 96.699219 41.769531 97.710938 42.167969 98.605469 C 42.691406 99.777344 44.070312 100.304688 45.238281 99.777344 C 46.40625 99.25 46.929688 97.867188 46.402344 96.695312 C 46.019531 95.835938 45.175781 95.324219 44.292969 95.324219 C 41.554688 88.355469 40.164062 81.003906 40.164062 73.4375 C 40.164062 62.714844 43.011719 52.253906 48.417969 43.066406 C 49.148438 43.132812 49.886719 42.804688 50.316406 42.144531 " fill-opacity="1" fill-rule="nonzero"/></g><path fill="#ffffff" d="M 125.207031 25.09375 C 125.230469 25.105469 125.234375 25.105469 125.207031 25.09375 Z M 125.199219 25.089844 C 125.183594 25.082031 125.167969 25.074219 125.140625 25.058594 C 125.164062 25.070312 125.183594 25.082031 125.199219 25.089844 Z M 126.558594 21.785156 C 127.4375 22.222656 127.792969 23.296875 127.355469 24.175781 C 126.917969 25.054688 125.847656 25.414062 124.972656 24.976562 C 124.097656 24.535156 123.738281 23.464844 124.175781 22.582031 C 124.613281 21.703125 125.683594 21.34375 126.558594 21.785156 Z M 145.730469 37.441406 C 145.230469 36.777344 144.40625 36.507812 143.648438 36.679688 C 139.28125 31.453125 133.957031 26.988281 128.074219 23.609375 C 128.164062 22.675781 127.6875 21.738281 126.800781 21.296875 C 125.65625 20.722656 124.257812 21.191406 123.6875 22.339844 C 123.117188 23.488281 123.582031 24.890625 124.730469 25.464844 C 125.558594 25.882812 126.515625 25.746094 127.203125 25.207031 C 132.878906 28.472656 138.019531 32.785156 142.234375 37.828125 C 141.929688 38.496094 141.992188 39.300781 142.464844 39.925781 C 143.148438 40.832031 144.433594 41.007812 145.335938 40.324219 C 146.238281 39.636719 146.414062 38.347656 145.730469 37.441406 " fill-opacity="1" fill-rule="nonzero"/><g clip-path="url(#1abfee81d9)"><path fill="#ffffff" d="M 154.230469 75.9375 C 154.230469 75.964844 154.230469 75.984375 154.230469 75.996094 C 154.230469 75.984375 154.230469 75.964844 154.230469 75.9375 Z M 154.238281 75.453125 C 154.238281 75.445312 154.238281 75.445312 154.238281 75.453125 Z M 156.046875 73.984375 C 157.027344 74.003906 157.808594 74.820312 157.785156 75.804688 C 157.765625 76.785156 156.953125 77.570312 155.972656 77.550781 C 154.996094 77.53125 154.214844 76.714844 154.234375 75.730469 C 154.234375 75.804688 154.230469 75.878906 154.230469 75.933594 C 154.230469 75.890625 154.230469 75.820312 154.234375 75.730469 C 154.238281 75.585938 154.238281 75.503906 154.238281 75.46875 C 154.238281 75.515625 154.238281 75.621094 154.234375 75.730469 C 154.253906 74.746094 155.066406 73.964844 156.046875 73.984375 Z M 158.332031 75.816406 C 158.359375 74.53125 157.335938 73.460938 156.058594 73.4375 C 154.777344 73.410156 153.714844 74.433594 153.6875 75.71875 C 153.671875 76.648438 154.199219 77.460938 154.976562 77.851562 C 153.328125 98.914062 140.03125 117.066406 120.433594 124.964844 C 119.898438 124.464844 119.113281 124.273438 118.371094 124.527344 C 117.304688 124.898438 116.734375 126.070312 117.105469 127.144531 C 117.476562 128.21875 118.640625 128.789062 119.710938 128.417969 C 120.496094 128.144531 121.007812 127.445312 121.082031 126.667969 C 130.886719 122.714844 139.378906 116.136719 145.734375 107.546875 C 152.15625 98.867188 155.953125 88.679688 156.789062 77.957031 C 157.671875 77.644531 158.3125 76.808594 158.332031 75.816406 C 158.332031 75.816406 158.332031 75.816406 158.332031 75.820312 C 158.332031 75.816406 158.332031 75.816406 158.332031 75.816406 C 158.332031 75.777344 158.332031 75.742188 158.332031 75.710938 C 158.332031 75.746094 158.332031 75.78125 158.332031 75.816406 " fill-opacity="1" fill-rule="nonzero"/></g><path fill="#ffffff" d="M 66.492188 116.609375 C 66.484375 116.601562 66.484375 116.601562 66.492188 116.609375 Z M 64.226562 117.144531 C 64.8125 116.355469 65.925781 116.1875 66.714844 116.773438 C 66.625 116.707031 66.535156 116.640625 66.5 116.613281 C 66.527344 116.636719 66.59375 116.683594 66.714844 116.773438 C 66.855469 116.878906 66.917969 116.925781 66.9375 116.9375 C 66.914062 116.921875 66.8125 116.847656 66.714844 116.773438 C 67.5 117.359375 67.667969 118.476562 67.085938 119.265625 C 66.503906 120.058594 65.386719 120.226562 64.601562 119.640625 C 63.8125 119.054688 63.644531 117.9375 64.226562 117.144531 Z M 94.742188 16.324219 C 80.910156 17.554688 68.082031 23.773438 58.429688 33.964844 C 48.289062 44.675781 42.707031 58.695312 42.707031 73.4375 C 42.707031 82.511719 44.765625 91.195312 48.828125 99.25 C 52.359375 106.253906 57.378906 112.554688 63.421875 117.585938 C 63.175781 118.488281 63.484375 119.492188 64.277344 120.082031 C 65.304688 120.84375 66.761719 120.625 67.523438 119.59375 C 68.285156 118.558594 68.066406 117.097656 67.039062 116.335938 C 66.289062 115.777344 65.320312 115.746094 64.550781 116.160156 C 51.792969 105.550781 44.523438 90.105469 44.523438 73.4375 C 44.523438 44.605469 66.480469 20.683594 94.859375 18.144531 C 95.234375 18.785156 95.9375 19.199219 96.726562 19.164062 C 97.855469 19.113281 98.730469 18.152344 98.679688 17.015625 C 98.628906 15.882812 97.667969 15.003906 96.539062 15.054688 C 95.71875 15.09375 95.035156 15.609375 94.742188 16.324219 " fill-opacity="1" fill-rule="nonzero"/><path fill="#ffffff" d="M 147.140625 89.964844 C 147.132812 89.980469 147.128906 90 147.125 90.015625 C 147.128906 90 147.132812 89.980469 147.140625 89.964844 Z M 147.121094 90.023438 C 147.113281 90.046875 147.105469 90.0625 147.101562 90.078125 C 147.105469 90.0625 147.113281 90.046875 147.121094 90.023438 Z M 147.089844 90.121094 C 147.085938 90.125 147.085938 90.125 147.089844 90.121094 Z M 147.226562 89.695312 C 147.226562 89.691406 147.226562 89.6875 147.230469 89.683594 C 147.226562 89.6875 147.226562 89.691406 147.226562 89.695312 Z M 147.246094 89.628906 C 147.253906 89.609375 147.257812 89.59375 147.261719 89.585938 C 147.257812 89.59375 147.253906 89.609375 147.246094 89.628906 Z M 149.410156 88.703125 C 150.34375 89.003906 150.859375 90.011719 150.554688 90.949219 C 150.253906 91.886719 149.253906 92.402344 148.320312 92.097656 C 147.386719 91.796875 146.875 90.789062 147.175781 89.855469 C 147.1875 89.808594 147.199219 89.773438 147.210938 89.742188 C 147.199219 89.777344 147.1875 89.816406 147.175781 89.855469 C 147.476562 88.917969 148.480469 88.402344 149.410156 88.703125 Z M 151.121094 90.972656 C 151.105469 91.019531 151.089844 91.066406 151.074219 91.117188 C 151.46875 89.894531 150.796875 88.578125 149.578125 88.183594 C 148.359375 87.789062 147.050781 88.464844 146.65625 89.6875 C 146.371094 90.570312 146.644531 91.5 147.277344 92.097656 C 139.644531 111.617188 120.855469 124.578125 99.835938 124.578125 C 82.558594 124.578125 66.308594 115.605469 56.960938 101.035156 C 57.347656 100.414062 57.390625 99.605469 57 98.925781 C 56.441406 97.941406 55.191406 97.597656 54.207031 98.160156 C 53.222656 98.722656 52.882812 99.980469 53.441406 100.964844 C 53.851562 101.6875 54.636719 102.066406 55.410156 101.992188 C 59.929688 109.050781 66.082031 114.976562 73.308594 119.210938 C 81.335938 123.917969 90.507812 126.402344 99.835938 126.402344 C 121.617188 126.402344 141.085938 112.960938 148.984375 92.726562 C 149.917969 92.675781 150.769531 92.0625 151.074219 91.117188 C 151.035156 91.242188 150.996094 91.371094 150.972656 91.429688 C 150.988281 91.382812 151.019531 91.285156 151.074219 91.117188 C 151.09375 91.058594 151.109375 91.015625 151.121094 90.972656 " fill-opacity="1" fill-rule="nonzero"/><path fill="#ffffff" d="M 47.992188 74.167969 C 47.011719 74.164062 46.21875 73.359375 46.226562 72.375 C 46.230469 71.390625 47.03125 70.59375 48.011719 70.601562 C 48.988281 70.605469 49.78125 71.410156 49.777344 72.390625 C 49.78125 72.148438 49.78125 71.902344 49.777344 72.390625 C 49.777344 72.539062 49.777344 72.621094 49.777344 72.65625 C 49.777344 72.613281 49.777344 72.503906 49.777344 72.390625 C 49.773438 73.375 48.972656 74.171875 47.992188 74.167969 Z M 99.835938 21.382812 C 99.808594 20.246094 98.867188 19.347656 97.734375 19.378906 C 96.910156 19.398438 96.214844 19.90625 95.90625 20.621094 C 83.148438 21.566406 71.242188 27.101562 62.199219 36.34375 C 53.21875 45.523438 47.929688 57.476562 47.164062 70.210938 C 46.300781 70.546875 45.683594 71.386719 45.679688 72.375 C 45.671875 73.65625 46.710938 74.707031 47.992188 74.714844 C 49.269531 74.722656 50.316406 73.679688 50.324219 72.394531 C 50.328125 71.457031 49.777344 70.648438 48.980469 70.273438 C 50.53125 44.816406 70.632812 24.339844 96 22.441406 C 96.359375 23.085938 97.054688 23.511719 97.839844 23.492188 C 98.972656 23.460938 99.863281 22.519531 99.835938 21.382812 " fill-opacity="1" fill-rule="nonzero"/><path fill="#ffffff" d="M 63.648438 45.425781 C 63.65625 45.414062 63.65625 45.414062 63.648438 45.425781 Z M 63.632812 45.445312 C 63.609375 45.476562 63.570312 45.53125 63.5 45.625 C 63.554688 45.554688 63.605469 45.480469 63.632812 45.445312 Z M 63.472656 45.664062 C 63.429688 45.726562 63.394531 45.773438 63.371094 45.804688 C 63.398438 45.765625 63.433594 45.71875 63.472656 45.664062 Z M 63.359375 45.820312 C 63.351562 45.832031 63.34375 45.84375 63.335938 45.851562 C 63.34375 45.84375 63.351562 45.832031 63.359375 45.820312 Z M 63.324219 45.867188 C 63.316406 45.878906 63.316406 45.875 63.324219 45.867188 Z M 63.101562 43.152344 C 63.894531 43.734375 64.066406 44.851562 63.484375 45.648438 C 62.90625 46.441406 61.792969 46.613281 61.003906 46.03125 C 60.210938 45.449219 60.039062 44.332031 60.621094 43.539062 C 61.199219 42.742188 62.3125 42.570312 63.101562 43.152344 Z M 132.875 37.957031 C 123.871094 29.488281 112.214844 24.847656 99.835938 24.847656 C 92.144531 24.847656 84.78125 26.613281 77.957031 30.097656 C 72.125 33.078125 66.878906 37.289062 62.667969 42.347656 C 61.765625 42.101562 60.765625 42.414062 60.179688 43.214844 C 59.421875 44.25 59.648438 45.710938 60.679688 46.472656 C 61.714844 47.230469 63.167969 47.003906 63.925781 45.96875 C 64.472656 45.21875 64.503906 44.246094 64.089844 43.476562 C 72.988281 32.769531 85.890625 26.671875 99.835938 26.671875 C 111.734375 26.671875 122.941406 31.128906 131.605469 39.261719 C 131.378906 39.957031 131.535156 40.753906 132.074219 41.320312 C 132.855469 42.140625 134.152344 42.167969 134.96875 41.382812 C 135.789062 40.597656 135.816406 39.296875 135.035156 38.476562 C 134.460938 37.875 133.609375 37.699219 132.875 37.957031 " fill-opacity="1" fill-rule="nonzero"/><path fill="#ffffff" d="M 99.257812 114.953125 C 99.261719 114.953125 99.269531 114.953125 99.285156 114.953125 C 99.273438 114.953125 99.261719 114.953125 99.257812 114.953125 Z M 99.308594 114.953125 C 99.335938 114.949219 99.378906 114.949219 99.433594 114.949219 C 99.382812 114.949219 99.339844 114.949219 99.308594 114.953125 Z M 99.753906 114.941406 C 99.765625 114.941406 99.773438 114.941406 99.78125 114.941406 C 99.773438 114.941406 99.765625 114.941406 99.753906 114.941406 Z M 99.808594 114.941406 C 99.816406 114.941406 99.816406 114.941406 99.808594 114.941406 Z M 97.789062 116.761719 C 97.769531 115.777344 98.554688 114.964844 99.53125 114.945312 C 99.53125 114.945312 99.53125 114.945312 99.527344 114.945312 C 99.53125 114.945312 99.53125 114.945312 99.53125 114.945312 C 99.574219 114.945312 99.609375 114.945312 99.640625 114.945312 C 99.609375 114.945312 99.570312 114.945312 99.53125 114.945312 C 100.511719 114.929688 101.324219 115.714844 101.339844 116.699219 C 101.359375 117.683594 100.574219 118.496094 99.597656 118.515625 C 98.617188 118.53125 97.804688 117.746094 97.789062 116.761719 Z M 99.605469 119.0625 C 100.886719 119.039062 101.910156 117.972656 101.886719 116.6875 C 101.863281 115.40625 100.804688 114.378906 99.523438 114.398438 C 98.605469 114.417969 97.820312 114.972656 97.457031 115.757812 C 75.285156 114.511719 57.605469 95.976562 57.605469 73.4375 C 57.605469 57.855469 65.925781 43.808594 79.449219 36.320312 C 80.035156 36.75 80.832031 36.851562 81.535156 36.519531 C 82.558594 36.035156 82.996094 34.808594 82.511719 33.78125 C 82.027344 32.753906 80.808594 32.316406 79.785156 32.800781 C 79.03125 33.160156 78.59375 33.917969 78.613281 34.703125 C 72.113281 38.304688 66.609375 43.496094 62.617188 49.8125 C 58.148438 56.878906 55.789062 65.046875 55.789062 73.4375 C 55.789062 96.964844 74.257812 116.308594 97.40625 117.582031 C 97.75 118.460938 98.609375 119.078125 99.605469 119.0625 " fill-opacity="1" fill-rule="nonzero"/><path fill="#ffffff" d="M 65.996094 88.484375 C 66 88.484375 66 88.488281 66 88.492188 C 66 88.488281 66 88.488281 65.996094 88.484375 Z M 66.140625 88.78125 C 66.152344 88.800781 66.160156 88.816406 66.167969 88.832031 C 66.160156 88.816406 66.152344 88.796875 66.140625 88.78125 Z M 66.214844 88.925781 C 66.226562 88.953125 66.234375 88.96875 66.238281 88.976562 C 66.234375 88.96875 66.226562 88.949219 66.214844 88.925781 Z M 63.738281 87.914062 C 64.617188 87.480469 65.683594 87.84375 66.117188 88.726562 C 66.546875 89.609375 66.183594 90.679688 65.304688 91.113281 C 64.425781 91.546875 63.359375 91.183594 62.925781 90.300781 C 62.496094 89.417969 62.859375 88.347656 63.738281 87.914062 Z M 60.148438 73.4375 C 60.148438 78.441406 61.058594 83.292969 62.855469 87.894531 C 62.195312 88.582031 61.996094 89.636719 62.4375 90.542969 C 62.378906 90.421875 62.320312 90.300781 62.292969 90.242188 C 62.3125 90.289062 62.359375 90.378906 62.4375 90.542969 C 62.515625 90.703125 62.5625 90.796875 62.585938 90.839844 C 62.554688 90.785156 62.496094 90.664062 62.4375 90.542969 C 63.003906 91.695312 64.398438 92.171875 65.546875 91.605469 C 66.695312 91.039062 67.171875 89.636719 66.605469 88.484375 C 66.203125 87.667969 65.382812 87.191406 64.527344 87.1875 C 62.828125 82.808594 61.964844 78.195312 61.964844 73.4375 C 61.964844 52.476562 78.953125 35.425781 99.835938 35.425781 C 102.542969 35.425781 105.230469 35.71875 107.855469 36.285156 C 108.015625 36.992188 108.539062 37.59375 109.277344 37.808594 C 110.363281 38.128906 111.503906 37.503906 111.820312 36.414062 C 112.136719 35.324219 111.515625 34.179688 110.429688 33.863281 C 109.625 33.625 108.796875 33.90625 108.289062 34.511719 C 105.523438 33.90625 102.6875 33.601562 99.835938 33.601562 C 77.953125 33.601562 60.148438 51.472656 60.148438 73.4375 " fill-opacity="1" fill-rule="nonzero"/><path fill="#ffffff" d="M 122.992188 96.503906 C 122.976562 96.519531 122.957031 96.539062 122.945312 96.550781 C 122.957031 96.539062 122.972656 96.523438 122.992188 96.503906 Z M 123.175781 96.300781 C 123.191406 96.285156 123.207031 96.265625 123.21875 96.253906 C 123.207031 96.269531 123.191406 96.285156 123.175781 96.300781 Z M 123.265625 96.207031 C 123.3125 96.152344 123.304688 96.164062 123.265625 96.207031 Z M 125.617188 96.277344 C 126.335938 96.945312 126.378906 98.074219 125.714844 98.796875 C 125.050781 99.519531 123.925781 99.566406 123.203125 98.898438 C 122.484375 98.230469 122.441406 97.101562 123.105469 96.378906 C 123.097656 96.386719 123.089844 96.394531 123.082031 96.402344 C 123.089844 96.394531 123.097656 96.386719 123.105469 96.378906 C 123.117188 96.363281 123.128906 96.351562 123.140625 96.339844 C 123.128906 96.351562 123.117188 96.363281 123.105469 96.378906 C 123.769531 95.65625 124.894531 95.609375 125.617188 96.277344 Z M 126.117188 99.167969 C 126.984375 98.226562 126.925781 96.75 125.984375 95.875 C 125.046875 95.003906 123.574219 95.0625 122.707031 96.007812 C 122.085938 96.679688 121.941406 97.621094 122.246094 98.421875 C 116.078125 104.015625 108.207031 107.070312 99.835938 107.070312 C 81.359375 107.070312 66.324219 91.984375 66.324219 73.4375 C 66.324219 56.246094 79.226562 41.925781 96.035156 40.019531 C 96.40625 40.632812 97.085938 41.035156 97.855469 41.011719 C 98.984375 40.972656 99.871094 40.023438 99.835938 38.890625 C 99.800781 37.753906 98.851562 36.863281 97.722656 36.898438 C 96.878906 36.925781 96.171875 37.460938 95.882812 38.199219 C 78.136719 40.183594 64.507812 55.296875 64.507812 73.4375 C 64.507812 92.988281 80.355469 108.894531 99.835938 108.894531 C 108.679688 108.894531 117.003906 105.65625 123.507812 99.734375 C 124.386719 100.101562 125.4375 99.910156 126.117188 99.167969 " fill-opacity="1" fill-rule="nonzero"/><path fill="#ffffff" d="M 128.039062 75.421875 C 128.039062 75.425781 128.039062 75.433594 128.039062 75.445312 C 128.039062 75.433594 128.039062 75.425781 128.039062 75.421875 Z M 128.039062 75.484375 C 128.035156 75.527344 128.035156 75.585938 128.03125 75.648438 C 128.035156 75.574219 128.035156 75.519531 128.039062 75.484375 Z M 128.019531 75.929688 C 128.019531 75.933594 128.019531 75.9375 128.019531 75.941406 C 128.019531 75.9375 128.019531 75.933594 128.019531 75.929688 Z M 128.019531 75.976562 C 128.019531 75.980469 128.019531 75.980469 128.019531 75.976562 Z M 129.875 73.984375 C 130.851562 74.019531 131.617188 74.851562 131.582031 75.832031 C 131.542969 76.816406 130.71875 77.585938 129.738281 77.546875 C 128.757812 77.507812 127.992188 76.679688 128.03125 75.695312 C 128.066406 74.714844 128.894531 73.945312 129.875 73.984375 Z M 132.125 75.855469 C 132.175781 74.570312 131.171875 73.484375 129.894531 73.4375 C 128.617188 73.386719 127.535156 74.390625 127.484375 75.675781 C 127.449219 76.574219 127.929688 77.375 128.660156 77.789062 C 127.332031 86.636719 121.972656 94.464844 114.179688 98.902344 C 113.605469 98.484375 112.832031 98.375 112.140625 98.6875 C 111.105469 99.152344 110.644531 100.371094 111.105469 101.40625 C 111.570312 102.445312 112.78125 102.90625 113.8125 102.445312 C 114.589844 102.09375 115.046875 101.320312 115.027344 100.515625 C 123.347656 95.792969 129.066406 87.441406 130.464844 77.996094 C 131.390625 77.71875 132.085938 76.875 132.125 75.855469 " fill-opacity="1" fill-rule="nonzero"/><path fill="#ffffff" d="M 90.144531 100.121094 C 90.144531 100.121094 90.140625 100.117188 90.140625 100.117188 C 90.140625 100.117188 90.144531 100.121094 90.144531 100.121094 Z M 89.355469 103.609375 C 88.417969 103.316406 87.894531 102.316406 88.183594 101.375 C 88.472656 100.4375 89.46875 99.910156 90.40625 100.199219 C 90.304688 100.167969 90.207031 100.140625 90.160156 100.125 C 90.195312 100.136719 90.273438 100.160156 90.40625 100.199219 C 90.550781 100.246094 90.628906 100.269531 90.660156 100.28125 C 90.621094 100.265625 90.511719 100.234375 90.40625 100.203125 C 91.34375 100.492188 91.867188 101.492188 91.578125 102.433594 C 91.289062 103.371094 90.289062 103.898438 89.355469 103.609375 Z M 71.082031 78.25 C 71.671875 77.855469 72.039062 77.160156 71.984375 76.398438 C 71.90625 75.265625 70.925781 74.414062 69.796875 74.492188 C 68.667969 74.574219 67.816406 75.558594 67.898438 76.691406 C 67.957031 77.542969 68.527344 78.234375 69.28125 78.492188 C 70.992188 88.890625 77.917969 97.78125 87.5625 101.972656 C 87.589844 102.941406 88.222656 103.828125 89.195312 104.128906 C 89.066406 104.089844 88.9375 104.050781 88.878906 104.03125 C 88.925781 104.046875 89.023438 104.078125 89.195312 104.128906 C 89.378906 104.1875 89.480469 104.21875 89.523438 104.234375 C 89.46875 104.21875 89.332031 104.171875 89.195312 104.128906 C 90.417969 104.511719 91.71875 103.820312 92.097656 102.59375 C 92.476562 101.367188 91.789062 100.058594 90.566406 99.679688 C 89.710938 99.414062 88.816406 99.671875 88.226562 100.273438 C 79.195312 96.324219 72.703125 87.992188 71.082031 78.25 " fill-opacity="1" fill-rule="nonzero"/></svg>